<?xml version="1.0" encoding="UTF-8" standalone="no"?>
<!-- Created with Inkscape (http://www.inkscape.org/) -->

<svg
   xmlns:dc="http://purl.org/dc/elements/1.1/"
   xmlns:cc="http://creativecommons.org/ns#"
   xmlns:rdf="http://www.w3.org/1999/02/22-rdf-syntax-ns#"
   xmlns:svg="http://www.w3.org/2000/svg"
   xmlns="http://www.w3.org/2000/svg"
   xmlns:xlink="http://www.w3.org/1999/xlink"
   xmlns:sodipodi="http://sodipodi.sourceforge.net/DTD/sodipodi-0.dtd"
   xmlns:inkscape="http://www.inkscape.org/namespaces/inkscape"
   width="744.09448819"
   height="1052.3622047"
   id="svg2"
   version="1.1"
   inkscape:version="0.48.5 r10040"
   sodipodi:docname="hiragana.svg">
  <defs
     id="defs4" />
  <sodipodi:namedview
     id="base"
     pagecolor="#ffffff"
     bordercolor="#666666"
     borderopacity="1.0"
     inkscape:pageopacity="0.0"
     inkscape:pageshadow="2"
     inkscape:zoom="0.49497475"
     inkscape:cx="478.69935"
     inkscape:cy="852.18729"
     inkscape:document-units="px"
     inkscape:current-layer="layer2"
     showgrid="false"
     inkscape:window-width="868"
     inkscape:window-height="921"
     inkscape:window-x="0"
     inkscape:window-y="0"
     inkscape:window-maximized="0" />
  <metadata
     id="metadata7">
    <rdf:RDF>
      <cc:Work
         rdf:about="">
        <dc:format>image/svg+xml</dc:format>
        <dc:type
           rdf:resource="http://purl.org/dc/dcmitype/StillImage" />
        <dc:title />
      </cc:Work>
    </rdf:RDF>
  </metadata>
  <g
     inkscape:label="Layer 1"
     inkscape:groupmode="layer"
     id="layer1"
     style="display:inline;opacity:0.16842105"
     sodipodi:insensitive="true">
    <image
       y="-429.96545"
       x="-564.62427"
       id="image2997"
       xlink:href="file:///C:/Users/fblos_000/Dropbox/UJ/VI sem/licencjat/hiragana.png"
       height="1208"
       width="2000" />
  </g>
  <g
     inkscape:groupmode="layer"
     id="layer2"
     inkscape:label="Warstwa">
    <g
       id="g2990">
      <path
         inkscape:connector-curvature="0"
         id="path2984"
         d="m 1184.2857,-261.92353 0,12.14286 37.1429,-2.14286 32.8571,-5 -3.5714,-10.71429 -39.2857,7.85715 z"
         style="fill:none;stroke:#000000;stroke-width:1px;stroke-linecap:butt;stroke-linejoin:miter;stroke-opacity:1" />
      <path
         inkscape:connector-curvature="0"
         id="path2986"
         d="m 1207.8571,-275.49496 -2.1428,48.57143 6.4286,31.42857 5.7142,15.71429 10.7143,-7.14286 -14.2857,-34.28572 3.5714,-52.85714 z"
         style="fill:none;stroke:#000000;stroke-width:1px;stroke-linecap:butt;stroke-linejoin:miter;stroke-opacity:1" />
      <path
         sodipodi:nodetypes="ccccccccccccccccccccccccc"
         inkscape:connector-curvature="0"
         id="path2988"
         d="m 1237.1429,-245.49496 -7.8572,27.85714 -9.2857,18.57143 -15,11.42857 -13.5714,0.71429 0.7143,-15.71429 7.8571,-17.14285 35,-8.57143 23.5714,5.71428 10.7143,14.28572 -5.7143,15.71428 -27.1428,12.14286 5,9.28571 25.7143,-9.28571 12.8571,-21.42857 -7.1429,-23.57143 -25.7142,-10 -34.2858,1.42857 -28.5714,20 -2.1428,26.42857 9.2857,10.71429 21.4285,-2.85714 16.4286,-15.00001 20.7143,-50 z"
         style="fill:none;stroke:#000000;stroke-width:1px;stroke-linecap:butt;stroke-linejoin:miter;stroke-opacity:1" />
    </g>
    <g
       id="g2999">
      <path
         inkscape:connector-curvature="0"
         id="path2995"
         d="m 1185.7143,-51.209246 11.4286,3.571429 -3.5715,39.9999996 5,23.5714284 4.2857,2.142857 8.5715,-17.14285681 8.5714,5.00000001 -7.1429,19.9999998 -10,7.857143 -7.1428,-4.285714 -10,-22.1428574 -4.2857,-32.8571426 z"
         style="fill:none;stroke:#000000;stroke-width:1px;stroke-linecap:butt;stroke-linejoin:miter;stroke-opacity:1" />
      <path
         inkscape:connector-curvature="0"
         id="path2997"
         d="m 1260,-44.066389 -10,7.857143 12.8571,16.428571 10,32.142858 12.1429,-3.571429 -7.8571,-28.571429 z"
         style="fill:none;stroke:#000000;stroke-width:1px;stroke-linecap:butt;stroke-linejoin:miter;stroke-opacity:1" />
    </g>
    <g
       id="g3007">
      <path
         inkscape:connector-curvature="0"
         id="path3003"
         d="m 1212.8571,143.07647 -2.8571,11.42857 45,8.57143 1.4286,-11.42857 z"
         style="fill:none;stroke:#000000;stroke-width:1px;stroke-linecap:butt;stroke-linejoin:miter;stroke-opacity:1" />
      <path
         inkscape:connector-curvature="0"
         id="path3005"
         d="m 1195,183.79075 5,11.42858 25,-9.28572 20.7143,-0.71428 10,9.28571 2.1428,13.57143 -9.2857,22.14286 -31.4285,12.85714 6.4285,10.71428 23.5715,-8.57142 19.2857,-25 4.2857,-25 -12.8572,-16.42858 -18.5714,-3.57142 z"
         style="fill:none;stroke:#000000;stroke-width:1px;stroke-linecap:butt;stroke-linejoin:miter;stroke-opacity:1" />
    </g>
    <g
       id="g3015">
      <path
         inkscape:connector-curvature="0"
         id="path3011"
         d="m 1207.8571,344.1479 -3.5714,9.64285 37.8572,7.14286 0.3571,-10.35714 z"
         style="fill:none;stroke:#000000;stroke-width:1px;stroke-linecap:butt;stroke-linejoin:miter;stroke-opacity:1" />
      <path
         inkscape:connector-curvature="0"
         id="path3013"
         d="m 1190.7143,377.36218 3.5714,11.78572 39.6429,-5 -58.2143,57.14285 10,10 27.1428,-31.42857 13.5715,-6.78571 7.1428,0.71428 3.5715,28.92858 6.4285,5.35714 33.2143,1.42857 3.9286,-14.64286 -28.5714,3.21429 -6.4286,-2.85714 -2.1429,-26.42858 -7.1428,-5.35714 -7.5,0.71429 24.6428,-23.57143 -11.0714,-7.85714 z"
         style="fill:none;stroke:#000000;stroke-width:1px;stroke-linecap:butt;stroke-linejoin:miter;stroke-opacity:1" />
    </g>
    <g
       id="g3025">
      <path
         inkscape:connector-curvature="0"
         id="path3019"
         d="m 1186.7857,575.93361 1.4286,10 36.4286,-1.78571 24.6428,-3.21429 -3.2143,-10.35714 -35.7143,6.42857 z"
         style="fill:none;stroke:#000000;stroke-width:1px;stroke-linecap:butt;stroke-linejoin:miter;stroke-opacity:1" />
      <path
         inkscape:connector-curvature="0"
         id="path3021"
         d="m 1210.7143,555.21933 0.7143,87.5 -3.9286,4.28571 -8.9286,0.71429 -4.2857,-4.28572 1.7857,-16.07143 26.4286,-14.64285 30,-1.42858 16.4286,7.14286 2.1428,14.28572 -9.2857,10.71428 -13.2143,-1.42857 -5.7143,-8.21429 -10,5.35715 10,11.78571 17.8572,2.85714 15.3571,-8.92857 6.4286,-16.42857 -3.9286,-14.28571 -20,-11.78572 -37.5,1.78572 -21.0714,7.85714 -15.7143,15.71429 0.3572,19.28571 13.9285,10.71429 15,-2.85715 9.2857,-9.28571 -3.2142,-89.28572 z"
         style="fill:none;stroke:#000000;stroke-width:1px;stroke-linecap:butt;stroke-linejoin:miter;stroke-opacity:1" />
      <path
         inkscape:connector-curvature="0"
         id="path3023"
         d="m 1261.4286,567.36218 -4.6429,8.21429 21.7857,16.42857 8.9286,-7.14286 z"
         style="fill:none;stroke:#000000;stroke-width:1px;stroke-linecap:butt;stroke-linejoin:miter;stroke-opacity:1" />
    </g>
    <g
       id="g3036">
      <path
         inkscape:connector-curvature="0"
         id="path3030"
         d="m 1016.0714,-240.13782 1.0715,12.14286 38.5714,-7.14286 10.7143,2.14286 4.6428,12.5 -3.5714,32.5 -8.2143,5 -7.8571,-7.14286 -7.8572,7.85714 11.7857,10.71429 10.3572,-0.71429 9.6428,-11.42857 5.7143,-36.42857 -3.2143,-15 -12.8571,-8.57143 z"
         style="fill:none;stroke:#000000;stroke-width:1px;stroke-linecap:butt;stroke-linejoin:miter;stroke-opacity:1" />
      <path
         inkscape:connector-curvature="0"
         id="path3032"
         d="m 1043.5714,-268.70925 -7.8571,40.71429 -21.0714,50.71428 11.0714,5.71429 22.1428,-61.78571 7.8572,-33.92858 z"
         style="fill:none;stroke:#000000;stroke-width:1px;stroke-linecap:butt;stroke-linejoin:miter;stroke-opacity:1" />
      <path
         inkscape:connector-curvature="0"
         id="path3034"
         d="m 1097.1429,-251.92353 -8.9286,6.78571 13.2143,17.14286 12.8571,26.42857 10.3572,-6.42857 -14.2858,-27.85714 z"
         style="fill:none;stroke:#000000;stroke-width:1px;stroke-linecap:butt;stroke-linejoin:miter;stroke-opacity:1" />
    </g>
    <g
       id="g3047">
      <path
         inkscape:connector-curvature="0"
         id="path3041"
         d="m 1029.6429,-45.137818 2.1428,10.714286 42.5,-4.642857 21.0714,-5.714286 -3.5714,-8.928572 -38.5714,7.857143 z"
         style="fill:none;stroke:#000000;stroke-width:1px;stroke-linecap:butt;stroke-linejoin:miter;stroke-opacity:1" />
      <path
         inkscape:connector-curvature="0"
         id="path3043"
         d="m 1023.2143,-22.280675 2.1428,10 60.3572,-5.357143 26.0714,-5.357143 -4.2857,-10 -32.8571,8.571429 z"
         style="fill:none;stroke:#000000;stroke-width:1px;stroke-linecap:butt;stroke-linejoin:miter;stroke-opacity:1" />
      <path
         inkscape:connector-curvature="0"
         id="path3045"
         d="m 1053.2143,-63.352104 15,38.571429 13.5714,23.2142856 -23.5714,-2.1428571 -20.3572,5 -9.2857,9.2857145 2.5,15.714286 11.7857,11.071428 44.6429,3.214286 2.8571,-11.071429 -39.6428,0 -9.6429,-5 -1.7857,-12.142857 14.2857,-8.2142857 20.3572,0.7142858 16.7857,5.7142859 8.9286,-7.8571431 -23.2143,-33.5714289 -11.7857,-34.285714 z"
         style="fill:none;stroke:#000000;stroke-width:1px;stroke-linecap:butt;stroke-linejoin:miter;stroke-opacity:1" />
    </g>
    <path
       style="fill:none;stroke:#000000;stroke-width:1px;stroke-linecap:butt;stroke-linejoin:miter;stroke-opacity:1"
       d="m 1074.2857,143.07647 -12.1428,21.07143 -31.0715,30 1.7857,7.14285 49.2858,49.64286 8.5714,-11.07143 -47.8572,-40.71428 0,-5.35715 30.7143,-27.85714 12.8572,-17.14286 z"
       id="path3052"
       inkscape:connector-curvature="0" />
    <g
       id="g3060">
      <path
         inkscape:connector-curvature="0"
         id="path3054"
         d="m 1035.3571,359.86218 -13.5714,0 -3.5714,54.28572 7.8571,27.14285 6.7857,3.21429 13.9286,-11.07143 -7.1428,-8.92857 -6.0715,6.07143 -5,-17.14286 z"
         style="fill:none;stroke:#000000;stroke-width:1px;stroke-linecap:butt;stroke-linejoin:miter;stroke-opacity:1" />
      <path
         inkscape:connector-curvature="0"
         id="path3056"
         d="m 1053.2143,380.21933 0.7143,10.35714 48.9285,-2.14286 16.4286,-2.85714 -4.6428,-10 -32.1429,4.64286 z"
         style="fill:none;stroke:#000000;stroke-width:1px;stroke-linecap:butt;stroke-linejoin:miter;stroke-opacity:1" />
      <path
         inkscape:connector-curvature="0"
         id="path3058"
         d="m 1086.4286,353.79075 2.8571,56.78572 -4.6428,22.5 -7.8572,9.64286 -13.5714,5.71428 7.1428,10 20.7143,-15.71428 7.8572,-20.71429 0,-68.92857 z"
         style="fill:none;stroke:#000000;stroke-width:1px;stroke-linecap:butt;stroke-linejoin:miter;stroke-opacity:1" />
    </g>
    <g
       id="g3069">
      <path
         inkscape:connector-curvature="0"
         id="path3065"
         d="m 1044.2857,567.00504 -2.1428,11.78571 22.5,4.64286 34.6428,0 0,-11.07143 -35.7143,1.07143 z"
         style="fill:none;stroke:#000000;stroke-width:1px;stroke-linecap:butt;stroke-linejoin:miter;stroke-opacity:1" />
      <path
         inkscape:connector-curvature="0"
         id="path3067"
         d="m 1042.8571,622.36218 -10.7142,-3.21428 -3.5715,12.14285 2.8572,12.5 16.4285,8.57143 62.8572,1.78572 -0.7143,-12.85715 -51.0714,2.14286 -16.4286,-5.71428 -2.5,-6.42858 z"
         style="fill:none;stroke:#000000;stroke-width:1px;stroke-linecap:butt;stroke-linejoin:miter;stroke-opacity:1" />
    </g>
    <g
       id="g3077">
      <path
         inkscape:connector-curvature="0"
         id="path3073"
         d="m 861.07143,-246.20925 2.14286,10.35715 54.28571,-4.64286 27.14286,-6.07143 -3.92857,-9.28571 -45.35715,9.64285 z"
         style="fill:none;stroke:#000000;stroke-width:1px;stroke-linecap:butt;stroke-linejoin:miter;stroke-opacity:1" />
      <path
         inkscape:connector-curvature="0"
         id="path3075"
         d="m 892.5,-270.13782 17.85714,41.07143 11.42857,15.71429 -24.64285,-1.42858 -16.78572,3.21429 -12.5,13.57143 3.21429,15.71428 16.78571,11.42858 39.64286,2.5 2.5,-12.14286 -30.35714,1.78571 -18.92857,-6.78571 1.42857,-10.71429 4.64285,-7.5 22.14286,-2.5 23.21429,6.78572 10.35714,-7.14286 -24.28571,-28.57143 -12.5,-36.78571 z"
         style="fill:none;stroke:#000000;stroke-width:1px;stroke-linecap:butt;stroke-linejoin:miter;stroke-opacity:1" />
    </g>
    <path
       style="fill:none;stroke:#000000;stroke-width:1px;stroke-linecap:butt;stroke-linejoin:miter;stroke-opacity:1"
       d="m 882.5,-58.709247 -16.42857,-1.428571 1.42857,10.357143 -0.35714,64.642857 8.21428,17.5 21.78572,6.428572 23.92857,-6.428572 22.85714,-23.9285714 -10.35714,-7.85714282 -15.71429,18.92857122 -18.21428,8.214286 -14.28572,-2.857143 -7.5,-11.428571 1.78572,-65.357143 z"
       id="path3081"
       inkscape:connector-curvature="0" />
    <g
       id="g3087">
      <path
         inkscape:connector-curvature="0"
         id="path3083"
         d="m 847.85714,161.6479 2.85715,10.71428 103.57142,-3.21428 -1.78571,-9.64286 z"
         style="fill:none;stroke:#000000;stroke-width:1px;stroke-linecap:butt;stroke-linejoin:miter;stroke-opacity:1" />
      <path
         inkscape:connector-curvature="0"
         id="path3085"
         d="m 902.14286,141.29075 2.14285,43.92858 -2.85714,24.64285 -8.57143,3.57143 -7.85714,-7.14286 0.35714,-12.14285 8.92857,-3.57143 9.28572,7.14286 0,25.71428 -14.28572,16.07143 -10,4.64286 7.14286,10.71428 17.14286,-13.57143 8.57143,-15.71428 3.92857,-26.78572 -12.85714,-14.64285 -17.5,-0.71429 -10.35715,10 0,16.07143 10,11.07143 15.35715,-0.71429 12.14285,-6.42857 2.85715,-71.42857 z"
         style="fill:none;stroke:#000000;stroke-width:1px;stroke-linecap:butt;stroke-linejoin:miter;stroke-opacity:1" />
    </g>
    <g
       id="g3097">
      <path
         inkscape:connector-curvature="0"
         id="path3091"
         d="m 845.35714,388.43361 1.78572,10.71429 107.14285,-6.07143 -0.71428,-11.42857 -66.42857,6.42857 z"
         style="fill:none;stroke:#000000;stroke-width:1px;stroke-linecap:butt;stroke-linejoin:miter;stroke-opacity:1" />
      <path
         inkscape:connector-curvature="0"
         id="path3093"
         d="m 914.28571,357.00504 1.42858,7.5 0,45.35714 -3.57143,4.28572 -13.57143,-3.57143 -0.71429,10.71428 14.28572,2.14286 9.64285,-3.57143 4.64286,-10.71428 0.35714,-50.71429 z"
         style="fill:none;stroke:#000000;stroke-width:1px;stroke-linecap:butt;stroke-linejoin:miter;stroke-opacity:1" />
      <path
         sodipodi:nodetypes="cccccccccc"
         inkscape:connector-curvature="0"
         id="path3095"
         d="m 871.42857,361.6479 2.14286,73.92857 10,13.57143 28.21428,2.14285 25.71429,-1.07142 2.5,-11.78572 -49.28571,0.35715 -7.50001,-6.78572 -0.35714,-69.28571 z"
         style="fill:none;stroke:#000000;stroke-width:1px;stroke-linecap:butt;stroke-linejoin:miter;stroke-opacity:1" />
    </g>
    <path
       style="fill:none;stroke:#000000;stroke-width:1px;stroke-linecap:butt;stroke-linejoin:miter;stroke-opacity:1"
       d="m 870.71429,569.50504 3.92857,10.71429 32.5,-3.21429 -37.85715,30.71429 -22.14285,0.71428 3.21428,10.71429 55.35715,-6.42857 -17.85715,16.42857 -3.57143,15.71428 3.57143,12.85715 10.71429,6.78571 13.57143,3.57143 19.28571,-0.71429 -3.21428,-12.14285 -20.35715,1.07142 -10,-4.28571 -2.5,-12.14286 10,-17.14285 17.85715,-11.07143 23.92857,-2.5 -5,-9.28572 -55.71429,5.35715 41.78572,-31.07143 -9.64286,-6.78572 z"
       id="path3102"
       inkscape:connector-curvature="0" />
    <g
       id="g3112">
      <path
         inkscape:connector-curvature="0"
         id="path3104"
         d="m 682.14286,-253.3521 2.5,11.07142 30.71428,-3.21428 30,-4.28572 -3.21428,-10 -35.35715,5.35715 z"
         style="fill:none;stroke:#000000;stroke-width:1px;stroke-linecap:butt;stroke-linejoin:miter;stroke-opacity:1" />
      <path
         inkscape:connector-curvature="0"
         id="path3106"
         d="m 710,-274.78068 -11.07143,46.78572 -18.21428,47.85714 11.78571,6.07143 24.28571,-73.92857 6.42858,-25.35714 z"
         style="fill:none;stroke:#000000;stroke-width:1px;stroke-linecap:butt;stroke-linejoin:miter;stroke-opacity:1" />
      <path
         inkscape:connector-curvature="0"
         id="path3108"
         d="m 735.35714,-237.63782 2.14286,9.28572 39.28571,-0.71429 1.42858,-8.92857 -25.71429,-1.07143 z"
         style="fill:none;stroke:#000000;stroke-width:1px;stroke-linecap:butt;stroke-linejoin:miter;stroke-opacity:1" />
      <path
         inkscape:connector-curvature="0"
         id="path3110"
         d="m 721.07143,-205.8521 3.57143,15.71428 9.28571,7.85714 8.92857,3.21429 34.64286,0 3.21429,-10.35714 -33.92858,1.07143 -12.85714,-5 -2.14286,-12.85715 z"
         style="fill:none;stroke:#000000;stroke-width:1px;stroke-linecap:butt;stroke-linejoin:miter;stroke-opacity:1" />
    </g>
    <g
       id="g3127">
      <path
         style="fill:none;stroke:#000000;stroke-width:1px;stroke-linecap:butt;stroke-linejoin:miter;stroke-opacity:1"
         d="m 689.28571,-43.352103 1.42858,11.428572 48.57142,-2.857143 22.85715,-4.285714 -2.85715,-10 -32.85714,6.428571 z"
         id="path3121"
         inkscape:connector-curvature="0" />
      <path
         inkscape:connector-curvature="0"
         id="path3125"
         d="m 717.2083,-66.381753 -12.6269,70.7106774 9.09137,4.5456864 28.78935,-15.6573644 20.20305,4.0406102 4.04061,12.6269067 -9.09138,15.6573647 -40.91117,0.505076 2.52538,12.12183 33.33503,-2.020305 21.2132,-12.626906 5.05077,-17.1725936 -10.10153,-14.6472118 -14.14213,-7.0710676 -25.25382,3.535534 -11.11168,8.0812201 9.59645,-61.1142291 z"
         style="fill:none;stroke:#000000;stroke-width:1px;stroke-linecap:butt;stroke-linejoin:miter;stroke-opacity:1" />
    </g>
    <path
       style="fill:none;stroke:#000000;stroke-width:1px;stroke-linecap:butt;stroke-linejoin:miter;stroke-opacity:1"
       d="m 677.14286,178.43361 -4.28572,-12.14286 53.92857,-9.28571 26.42858,0.35714 17.14285,9.28572 6.42857,16.42857 -1.07142,17.14286 -12.85715,17.14285 -23.92857,9.64286 -29.28571,2.5 -2.85715,-13.21429 31.07143,-0.71428 17.5,-7.85714 10.35715,-13.92858 -3.21429,-17.85714 -11.07143,-9.28571 -21.78571,-1.42857 z"
       id="path3126"
       inkscape:connector-curvature="0" />
    <path
       style="fill:none;stroke:#000000;stroke-width:1px;stroke-linecap:butt;stroke-linejoin:miter;stroke-opacity:1"
       d="m 681.42857,378.07647 -4.64286,-13.92857 46.42858,-2.14286 48.57142,-6.78571 5,11.78571 -18.57142,0.71429 -22.14286,15 -13.57143,21.42857 0.35714,17.5 9.64286,11.07143 15.71429,5.35714 15,-1.07143 -2.85715,13.92857 -21.07143,-1.78571 -17.5,-9.64286 -10,-18.92857 0,-19.28572 14.28572,-20.71428 11.42857,-10 -32.14286,2.85714 z"
       id="path3128"
       inkscape:connector-curvature="0" />
    <g
       id="g3225">
      <path
         inkscape:connector-curvature="0"
         id="path3221"
         d="m 720.71429,565.93361 5,41.42857 -9.28572,2.14286 -5.71428,-28.57143 -2.14286,-17.14286 z"
         style="fill:none;stroke:#000000;stroke-width:1px;stroke-linecap:butt;stroke-linejoin:miter;stroke-opacity:1" />
      <path
         inkscape:connector-curvature="0"
         id="path3223"
         d="m 760,589.50504 -39.28571,14.28571 -20.71429,15 -6.42857,22.14286 7.14286,14.28572 31.42857,5.71428 32.14285,-2.14286 2.14286,-10.71428 -44.28571,2.14286 -15.71429,-5 -3.57143,-12.85715 19.28572,-17.14285 47.14285,-17.85715 z"
         style="fill:none;stroke:#000000;stroke-width:1px;stroke-linecap:butt;stroke-linejoin:miter;stroke-opacity:1" />
    </g>
    <g
       id="g3146">
      <path
         inkscape:connector-curvature="0"
         id="path3138"
         d="m 515.71429,-254.42353 2.85714,10.71428 33.21428,-3.57143 21.78572,-3.21428 -3.57143,-11.42857 -29.64286,7.14285 z"
         style="fill:none;stroke:#000000;stroke-width:1px;stroke-linecap:butt;stroke-linejoin:miter;stroke-opacity:1" />
      <path
         inkscape:connector-curvature="0"
         id="path3140"
         d="m 546.42857,-276.92353 -7.14286,27.85714 -26.07142,49.64286 10.35714,7.5 25,-52.5 10.71428,-30.35715 z"
         style="fill:none;stroke:#000000;stroke-width:1px;stroke-linecap:butt;stroke-linejoin:miter;stroke-opacity:1" />
      <path
         inkscape:connector-curvature="0"
         id="path3142"
         d="m 588.92857,-257.99496 -3.57143,9.28571 26.07143,15 7.85714,-10.35714 z"
         style="fill:none;stroke:#000000;stroke-width:1px;stroke-linecap:butt;stroke-linejoin:miter;stroke-opacity:1" />
      <path
         inkscape:connector-curvature="0"
         id="path3144"
         d="m 574.64286,-233.3521 2.14285,32.5 -1.78571,14.64285 -5.71429,3.57143 -12.5,0.71429 -3.92857,-5.35715 1.78572,-8.21428 10.35714,-3.21429 28.57143,7.85715 16.42857,11.42857 6.07143,-11.07143 -30.35714,-12.14286 -13.57143,-3.57143 -12.85715,0 -11.42857,4.64286 -4.28571,9.64286 0,10.71428 11.42857,7.85715 12.85714,1.07142 13.92857,-5.35714 5,-20.71428 0.71429,-35.35715 z"
         style="fill:none;stroke:#000000;stroke-width:1px;stroke-linecap:butt;stroke-linejoin:miter;stroke-opacity:1" />
    </g>
    <g
       id="g3135">
      <path
         inkscape:connector-curvature="0"
         id="path3129"
         d="m 525.71429,-56.209245 -1.42858,67.857142 7.14286,23.571429 5.71429,3.571429 14.28571,-10.714286 -7.14286,-10.714286 -7.14285,7.857143 -0.71429,-58.571429 1.42857,-22.857142 z"
         style="fill:none;stroke:#000000;stroke-width:1px;stroke-linecap:butt;stroke-linejoin:miter;stroke-opacity:1" />
      <path
         inkscape:connector-curvature="0"
         id="path3131"
         d="m 562.85714,-44.066388 2.14286,9.285714 50.71429,-2.857143 -2.14286,-10 z"
         style="fill:none;stroke:#000000;stroke-width:1px;stroke-linecap:butt;stroke-linejoin:miter;stroke-opacity:1" />
      <path
         inkscape:connector-curvature="0"
         id="path3133"
         d="m 559.28571,-0.49495968 12.14286,-0.71428572 2.14286,13.5714284 15.71428,7.142857 31.42858,-1.428571 -3.57143,12.142857 -31.42857,0.714286 -17.14286,-7.142857 z"
         style="fill:none;stroke:#000000;stroke-width:1px;stroke-linecap:butt;stroke-linejoin:miter;stroke-opacity:1" />
    </g>
    <g
       id="g3145">
      <path
         inkscape:connector-curvature="0"
         id="path3151"
         d="m 608.92857,225.21933 -6.42857,8.57142 10.71429,8.57143 8.21428,-9.64285 z"
         style="fill:none;stroke:#000000;stroke-width:1px;stroke-linecap:butt;stroke-linejoin:miter;stroke-opacity:1" />
      <path
         inkscape:connector-curvature="0"
         id="path3145"
         d="m 564.28571,152.36218 -6.42857,42.85715 -7.85714,18.57142 -11.42857,15 -11.42857,3.57143 -3.57143,-12.85714 8.57143,-24.28571 30.71428,-18.57143 3.57143,-9.28572 -12.85714,1.42857 -27.14286,16.42858 -12.85714,23.57142 2.85714,28.57143 14.28572,7.85715 17.14285,-9.28572 23.57143,-51.42857 6.42857,-30.71429 z"
         style="fill:none;stroke:#000000;stroke-width:1px;stroke-linecap:butt;stroke-linejoin:miter;stroke-opacity:1" />
      <path
         inkscape:connector-curvature="0"
         id="path3149"
         d="m 572.14286,175.93361 11.78571,1.42857 14.28572,9.28572 6.78571,18.57143 -4.28571,15 -10.35715,14.28571 -12.5,0.35714 -1.78571,-7.14285 3.92857,-6.07143 16.78571,5.35714 5.35715,-8.21429 -16.42857,-5.71428 -9.64286,1.42857 -8.57143,8.92857 0.71429,13.92857 11.42857,7.14286 15,-1.42857 12.85714,-12.85714 7.5,-18.92858 -2.5,-24.64285 -16.42857,-15.35715 -22.85714,-4.28571 z"
         style="fill:none;stroke:#000000;stroke-width:1px;stroke-linecap:butt;stroke-linejoin:miter;stroke-opacity:1" />
      <path
         inkscape:connector-curvature="0"
         id="path3130"
         d="m 515.17781,164.94316 19.69797,45.45686 17.67767,25.75889 10.10153,-9.59645 -23.73859,-30.30457 -12.62691,-34.85027 z"
         style="fill:none;stroke:#000000;stroke-width:1px;stroke-linecap:butt;stroke-linejoin:miter;stroke-opacity:1" />
    </g>
    <g
       id="g3169">
      <path
         inkscape:connector-curvature="0"
         id="path3159"
         d="m 540.71429,353.07647 0.35714,104.28571 11.78571,-2.14285 -2.5,-70 2.85715,-32.5 z"
         style="fill:none;stroke:#000000;stroke-width:1px;stroke-linecap:butt;stroke-linejoin:miter;stroke-opacity:1" />
      <path
         inkscape:connector-curvature="0"
         id="path3161"
         d="m 514.28571,383.07647 4.64286,10 43.21429,-12.85714 -8.92857,-7.14286 -23.57143,7.14286 z"
         style="fill:none;stroke:#000000;stroke-width:1px;stroke-linecap:butt;stroke-linejoin:miter;stroke-opacity:1" />
      <path
         inkscape:connector-curvature="0"
         id="path3165"
         d="m 545.35714,385.21933 -11.78571,22.85714 -21.42857,25.35714 9.64285,8.92857 25,-32.14285 21.42858,-21.07143 18.57142,-6.07143 11.78572,3.57143 7.14286,18.57143 -2.5,21.07142 -6.42858,12.14286 -14.64285,0.71429 -5,-8.21429 2.5,-4.64286 11.07143,-1.07142 10.35714,6.42857 4.64286,-10.35715 -13.92858,-3.92857 -15,1.07143 -6.78571,7.14286 -1.78571,11.42857 9.28571,9.64286 15.35714,1.78571 13.92857,-6.42857 7.14286,-13.57143 1.78572,-26.78571 -6.78572,-18.57143 -18.57143,-8.57143 -17.85714,4.28571 -23.21429,14.64286 5.35715,-11.78571 z"
         style="fill:none;stroke:#000000;stroke-width:1px;stroke-linecap:butt;stroke-linejoin:miter;stroke-opacity:1" />
      <path
         inkscape:connector-curvature="0"
         id="path3167"
         d="m 613.92857,429.50504 -6.42857,8.21429 9.64286,9.28571 8.57143,-9.28571 z"
         style="fill:none;stroke:#000000;stroke-width:1px;stroke-linecap:butt;stroke-linejoin:miter;stroke-opacity:1" />
    </g>
    <path
       style="fill:none;stroke:#000000;stroke-width:1px;stroke-linecap:butt;stroke-linejoin:miter;stroke-opacity:1"
       d="m 562.65497,578.09556 -3.03046,24.74874 -14.64721,27.27412 -11.61676,5.55584 -7.63742,-13.785 8.64758,-27.12618 25.75889,-19.1929 25.25381,1.51523 17.52973,12.73895 2.67332,26.15192 -10.6066,18.68783 -26.76904,11.11167 4.04061,10.10153 30.30457,-12.62691 13.13199,-20.20305 1.01015,-23.73858 -12.74946,-22.45795 -32.20233,-10.87709 -29.7995,7.57615 -19.1929,21.71828 -7.6628,26.20269 8.67295,21.27448 12.62691,5.05076 16.33576,-10.51994 15.48405,-30.89632 7.07106,-28.78934 z"
       id="path3175"
       inkscape:connector-curvature="0"
       sodipodi:nodetypes="ccccccccccccccccccccccccccc" />
    <g
       id="g3187">
      <path
         inkscape:connector-curvature="0"
         id="path3181"
         d="m 347.14286,-268.3521 -0.71429,51.42857 0.71429,31.07143 5,11.78571 6.07143,2.14286 8.92857,-4.28572 6.42857,-6.78571 -8.92857,-8.92857 -1.42857,5 -3.57143,1.78571 -4.28572,-17.14286 5.26314,-63.587 z"
         style="fill:none;stroke:#000000;stroke-width:1px;stroke-linecap:butt;stroke-linejoin:miter;stroke-opacity:1"
         sodipodi:nodetypes="ccccccccccccc" />
      <path
         inkscape:connector-curvature="0"
         id="path3183"
         d="m 379.28571,-249.42353 1.07143,9.28571 66.07143,-2.85714 -1.42857,-10 -38.57143,3.21428 z"
         style="fill:none;stroke:#000000;stroke-width:1px;stroke-linecap:butt;stroke-linejoin:miter;stroke-opacity:1" />
      <path
         inkscape:connector-curvature="0"
         id="path3185"
         d="m 412.85714,-271.20925 2.85715,70.35715 -2.14286,14.64285 -5.35714,3.57143 -9.64286,0.71429 -5.35714,-3.57143 -0.35715,-8.57143 5.71429,-2.85714 10,-1.42857 26.07143,11.42857 10.71428,7.5 6.07143,-13.21429 -28.21428,-10 -15.35715,-3.57143 -13.21428,1.42857 -11.78572,8.92858 0.71429,13.21428 12.14286,8.57143 18.57142,0.35714 8.92858,-7.14285 3.92857,-23.57143 -1.78572,-66.42857 z"
         style="fill:none;stroke:#000000;stroke-width:1px;stroke-linecap:butt;stroke-linejoin:miter;stroke-opacity:1" />
    </g>
    <path
       style="fill:none;stroke:#000000;stroke-width:1px;stroke-linecap:butt;stroke-linejoin:miter;stroke-opacity:1"
       d="m 375.27167,-41.127947 -23.23351,5.555839 -2.0203,-12.12183 34.34518,-5.555839 8.08122,6.060915 -21.71828,33.84011 -4.04061,27.779195 11.61676,13.63706 20.70812,1.515229 15.65737,-9.59645 5.05076,-29.2944234 -8.08122,-40.9111776 12.12183,-3.535534 11.11168,25.75889 20.70813,23.233508 -11.61676,10.6066017 -14.14213,-22.7284327 -2.02031,35.860416 -13.13198,13.637059 -20.20305,8.586297 -27.27412,-5.555839 -12.62691,-19.697975 5.05077,-32.324881 z"
       id="path3177"
       inkscape:connector-curvature="0" />
    <g
       id="g3202">
      <path
         inkscape:connector-curvature="0"
         id="path3194"
         d="m 380.71429,143.79075 -5.35715,9.64286 21.78572,10 16.78571,4.64286 3.21429,-10.71429 -22.5,-6.78571 z"
         style="fill:none;stroke:#000000;stroke-width:1px;stroke-linecap:butt;stroke-linejoin:miter;stroke-opacity:1" />
      <path
         inkscape:connector-curvature="0"
         id="path3196"
         d="m 381.42857,173.79075 -2.14286,17.5 2.85715,5.71429 21.42857,15 6.07143,10.35714 -1.78572,10 -8.92857,3.57143 -12.5,-3.21428 -4.28571,-5 -8.57143,5.35714 11.07143,10 16.78571,2.5 11.42857,-5.35714 8.57143,-10.71429 -2.14286,-16.42857 -15,-13.57143 -12.14285,-6.78571 -0.71429,-10.71429 1.78572,-6.78571 z"
         style="fill:none;stroke:#000000;stroke-width:1px;stroke-linecap:butt;stroke-linejoin:miter;stroke-opacity:1" />
      <path
         inkscape:connector-curvature="0"
         id="path3198"
         d="m 371.07143,203.79075 8.21428,6.78572 -27.85714,26.78571 -7.5,-7.14285 z"
         style="fill:none;stroke:#000000;stroke-width:1px;stroke-linecap:butt;stroke-linejoin:miter;stroke-opacity:1" />
      <path
         inkscape:connector-curvature="0"
         id="path3200"
         d="m 427.14286,195.21933 -6.78572,8.21428 16.78572,17.14286 8.57143,11.07143 10.71428,-9.28572 z"
         style="fill:none;stroke:#000000;stroke-width:1px;stroke-linecap:butt;stroke-linejoin:miter;stroke-opacity:1" />
    </g>
    <path
       style="fill:none;stroke:#000000;stroke-width:1px;stroke-linecap:butt;stroke-linejoin:miter;stroke-opacity:1"
       d="m 352.14286,415.21933 -9.28572,-7.85715 37.5,-33.57143 6.42857,-2.5 6.42858,2.5 31.78571,28.57143 30.35714,23.57143 -9.28571,11.07143 -56.42857,-51.78571 -5.71429,-0.35715 z"
       id="path3208"
       inkscape:connector-curvature="0" />
    <g
       id="g3218">
      <path
         inkscape:connector-curvature="0"
         id="path3210"
         d="m 354.28571,564.86218 -0.35714,81.42857 5.35714,12.85715 8.21429,1.78571 12.5,-10.35714 -7.85714,-10 -4.64286,6.42857 -4.28571,-3.57143 0,-45.35714 3.57142,-32.5 z"
         style="fill:none;stroke:#000000;stroke-width:1px;stroke-linecap:butt;stroke-linejoin:miter;stroke-opacity:1" />
      <path
         inkscape:connector-curvature="0"
         id="path3212"
         d="m 388.21429,566.29075 0.71428,11.07143 59.28572,-2.85714 -0.71429,-11.42857 -36.07143,3.57143 z"
         style="fill:none;stroke:#000000;stroke-width:1px;stroke-linecap:butt;stroke-linejoin:miter;stroke-opacity:1" />
      <path
         inkscape:connector-curvature="0"
         id="path3214"
         d="m 386.78571,596.6479 0.35715,10.35714 67.5,-4.28571 -1.42857,-10 -36.42858,3.57142 z"
         style="fill:none;stroke:#000000;stroke-width:1px;stroke-linecap:butt;stroke-linejoin:miter;stroke-opacity:1" />
      <path
         inkscape:connector-curvature="0"
         id="path3216"
         d="m 418.92857,577.00504 2.85714,52.14286 -1.07142,19.28571 -11.07143,2.85714 -9.28572,-2.85714 -1.78571,-7.85714 8.57143,-5.71429 25.35714,5 19.64286,11.42857 5.71428,-9.64285 -31.78571,-13.57143 -19.28572,-1.42857 -12.85714,3.57143 -6.42857,12.85714 4.28571,11.07143 13.92858,5.71428 16.78571,-1.42857 9.64286,-10.71428 -1.07143,-71.42858 z"
         style="fill:none;stroke:#000000;stroke-width:1px;stroke-linecap:butt;stroke-linejoin:miter;stroke-opacity:1" />
    </g>
    <g
       id="g3230">
      <path
         inkscape:connector-curvature="0"
         id="path3224"
         d="m 193.21429,-259.42353 2.85714,10.71428 82.85714,-5.35714 -2.85714,-10 -55,5.35714 z"
         style="fill:none;stroke:#000000;stroke-width:1px;stroke-linecap:butt;stroke-linejoin:miter;stroke-opacity:1" />
      <path
         inkscape:connector-curvature="0"
         id="path3226"
         d="m 206.07143,-236.20925 -5,7.14286 12.14286,5 58.57142,-2.85714 -0.71428,-8.92857 -57.85714,3.21428 z"
         style="fill:none;stroke:#000000;stroke-width:1px;stroke-linecap:butt;stroke-linejoin:miter;stroke-opacity:1" />
      <path
         inkscape:connector-curvature="0"
         id="path3228"
         d="m 233.92857,-280.8521 1.78572,76.07142 -1.78572,16.42858 -10,5 -13.57143,-2.14286 -2.14285,-9.28572 8.57142,-7.85714 20,1.42857 20.71429,7.5 15,9.64286 8.21429,-10 -30.35715,-12.14286 -25,-4.28571 -14.28571,0.71428 -10,7.85715 -3.57143,14.64285 11.42857,9.28572 16.42857,3.57143 15.35715,-5.35715 5.71428,-17.85714 -0.35714,-80.71428 z"
         style="fill:none;stroke:#000000;stroke-width:1px;stroke-linecap:butt;stroke-linejoin:miter;stroke-opacity:1" />
    </g>
    <g
       id="g3186">
      <path
         inkscape:connector-curvature="0"
         id="path3179"
         d="m 221.22341,-47.693938 -30.30458,3.535534 -3.03046,-10.101526 39.90103,-3.030457 10.6066,4.545686 -25.75889,60.6091528 -14.64721,18.6878222 -16.66752,-1.515229 -9.09137,-12.626907 5.55584,-17.6776692 25.75889,-12.1218308 9.59645,0 -3.53554,9.5964494 -15.15229,1.5152288 -9.59644,9.5964492 0,12.6269066 9.09137,-0.505076 19.1929,-35.860415 z"
         style="fill:none;stroke:#000000;stroke-width:1px;stroke-linecap:butt;stroke-linejoin:miter;stroke-opacity:1" />
      <path
         inkscape:connector-curvature="0"
         id="path3182"
         d="m 221.72848,-17.894438 -4.54568,10.6066017 28.78934,5.0507627 29.29443,16.6675166 9.09137,-11.1116776 -29.29442,-13.1319831 z"
         style="fill:none;stroke:#000000;stroke-width:1px;stroke-linecap:butt;stroke-linejoin:miter;stroke-opacity:1" />
      <path
         inkscape:connector-curvature="0"
         id="path3184"
         d="m 259.6092,-35.067031 -8.58629,37.3756438 -22.22336,26.7690422 -5.05076,3.535534 6.56599,7.576144 20.20305,-18.182746 16.16244,-28.7893471 4.04061,-24.7487369 z"
         style="fill:none;stroke:#000000;stroke-width:1px;stroke-linecap:butt;stroke-linejoin:miter;stroke-opacity:1" />
    </g>
    <g
       id="g3249">
      <path
         inkscape:connector-curvature="0"
         id="path3243"
         d="m 183.92857,162.36218 2.5,11.78572 39.28572,-2.5 24.28571,-3.21429 -2.5,-9.64286 -29.28571,4.28572 z"
         style="fill:none;stroke:#000000;stroke-width:1px;stroke-linecap:butt;stroke-linejoin:miter;stroke-opacity:1" />
      <path
         inkscape:connector-curvature="0"
         id="path3245"
         d="m 208.92857,143.79075 13.21429,0.71429 -3.57143,63.57143 -6.78572,14.64286 -13.21428,4.28571 -11.07143,-5 -2.5,-12.5 3.21429,-15 11.07142,-6.78571 14.28572,1.07142 5,9.28572 -3.21429,25.35714 2.14286,11.07143 11.78571,2.85714 23.57143,-0.71428 10.71429,-6.07143 -5,-23.21429 10.71428,-2.85714 5,27.85714 -6.78571,9.64286 -16.78571,5.35714 -29.28572,0 -12.85714,-6.42857 -4.28572,-9.28571 3.21429,-22.5 1.07143,-12.5 -6.78572,-1.07143 -8.21428,7.14286 0.35714,12.85714 11.07143,-2.5 5,-27.85714 z"
         style="fill:none;stroke:#000000;stroke-width:1px;stroke-linecap:butt;stroke-linejoin:miter;stroke-opacity:1" />
      <path
         inkscape:connector-curvature="0"
         id="path3247"
         d="m 264.28571,169.50504 -5.71428,8.57143 14.28571,10 9.28572,10 8.57143,-9.28572 z"
         style="fill:none;stroke:#000000;stroke-width:1px;stroke-linecap:butt;stroke-linejoin:miter;stroke-opacity:1" />
    </g>
    <g
       id="g3258">
      <path
         inkscape:connector-curvature="0"
         id="path3254"
         d="m 191.78571,364.86218 11.78572,-1.07143 11.78571,35.71429 20,30 -10,9.28571 -23.57143,-42.85714 z"
         style="fill:none;stroke:#000000;stroke-width:1px;stroke-linecap:butt;stroke-linejoin:miter;stroke-opacity:1" />
      <path
         inkscape:connector-curvature="0"
         id="path3256"
         d="m 242.85714,352.36218 -10,41.78572 -16.78571,31.42857 -10.71429,10 -7.85714,-1.42857 -2.14286,-15.35715 7.85715,-22.5 22.5,-14.28571 15,-2.5 19.64285,3.92857 11.78572,13.21429 3.92857,14.64285 -6.42857,20 -16.42857,8.92858 -13.92858,2.85714 5.71429,10.71428 21.78571,-7.14285 16.42858,-15 4.28571,-25 -11.78571,-24.64286 -18.21429,-11.07143 -32.14286,0.71429 -27.5,15.71428 -10.35714,19.64286 -2.14286,23.21429 7.14286,13.57142 12.5,2.85715 15.71429,-9.64286 18.57142,-32.85714 16.42858,-48.92857 z"
         style="fill:none;stroke:#000000;stroke-width:1px;stroke-linecap:butt;stroke-linejoin:miter;stroke-opacity:1" />
    </g>
    <g
       id="g3136">
      <path
         style="fill:none;stroke:#000000;stroke-width:1px;stroke-linecap:butt;stroke-linejoin:miter;stroke-opacity:1"
         d="m 190,578.07647 0.71429,7.85714 39.28571,2.85714 15.71429,-0.71428 0,-11.42857 -29.28572,4.28571 z"
         id="path3193"
         inkscape:connector-curvature="0" />
      <path
         inkscape:connector-curvature="0"
         id="path3132"
         d="m 215.16249,557.89252 -11.61675,74.24621 6.56599,19.19289 25.25381,11.11168 26.76904,-6.56599 10.10153,-23.23351 -3.53553,-23.23351 -8.08123,4.04061 -0.50507,24.24367 -11.11168,13.13198 -24.74874,-2.02031 -11.61675,-13.63706 12.62691,-74.75128 z"
         style="fill:none;stroke:#000000;stroke-width:1px;stroke-linecap:butt;stroke-linejoin:miter;stroke-opacity:1" />
      <path
         inkscape:connector-curvature="0"
         id="path3134"
         d="m 191.42391,602.33923 -4.04061,7.57614 27.27411,9.59645 35.35534,-4.54569 -1.01015,-7.57614 -31.31473,0.50508 z"
         style="fill:none;stroke:#000000;stroke-width:1px;stroke-linecap:butt;stroke-linejoin:miter;stroke-opacity:1" />
    </g>
    <g
       id="g3208">
      <path
         inkscape:connector-curvature="0"
         id="path3202"
         d="m 11.111678,-228.00617 7.071068,10.10153 56.568542,-24.24366 18.687822,-3.03046 12.62691,5.05076 3.03045,16.66752 -10.101521,9.59645 -15.657364,-4.04061 -7.576144,-5.05076 -5.555839,8.08122 14.142135,10.6066 19.192903,0.50507 12.6269,-10.10152 4.04061,-18.18275 -11.11168,-19.69797 -29.294419,-3.03046 z"
         style="fill:none;stroke:#000000;stroke-width:1px;stroke-linecap:butt;stroke-linejoin:miter;stroke-opacity:1" />
      <path
         inkscape:connector-curvature="0"
         id="path3204"
         d="m 70.710678,-272.95796 0,23.73859 11.616754,-3.03046 1.515229,-20.20305 z"
         style="fill:none;stroke:#000000;stroke-width:1px;stroke-linecap:butt;stroke-linejoin:miter;stroke-opacity:1" />
      <path
         inkscape:connector-curvature="0"
         id="path3206"
         d="m 30.304576,-264.37166 33.840111,93.94419 13.637059,-4.04061 -28.284271,-67.17515 -6.060916,-28.28427 z"
         style="fill:none;stroke:#000000;stroke-width:1px;stroke-linecap:butt;stroke-linejoin:miter;stroke-opacity:1" />
    </g>
    <g
       id="g3217">
      <path
         inkscape:connector-curvature="0"
         id="path3213"
         d="m 20.203051,153.83149 -3.030458,46.46702 5.050763,28.78935 12.121831,-5.55584 -3.030458,-12.12183 19.192898,-28.78935 25.253814,-11.61675 19.192898,0 12.626911,10.10152 -1.01016,21.71828 -15.657361,12.62691 -20.708127,-1.01015 -12.626907,-13.13199 -7.576144,8.08122 13.131983,13.63706 23.738585,2.52539 16.667521,-5.55584 15.15228,-18.68783 0,-21.71828 -17.17259,-15.65736 -19.697974,-3.53553 -26.769042,6.06091 -26.769043,30.30458 3.030458,-40.4061 z"
         style="fill:none;stroke:#000000;stroke-width:1px;stroke-linecap:butt;stroke-linejoin:miter;stroke-opacity:1" />
      <path
         inkscape:connector-curvature="0"
         id="path3215"
         d="m 71.720831,142.21474 2.020305,41.92133 -5.555839,34.85026 -14.647212,20.70813 9.091373,7.07107 15.152288,-27.27412 5.555839,-25.25381 0.505076,-52.52794 z"
         style="fill:none;stroke:#000000;stroke-width:1px;stroke-linecap:butt;stroke-linejoin:miter;stroke-opacity:1" />
    </g>
    <g
       id="g3296">
      <path
         inkscape:connector-curvature="0"
         id="path3292"
         d="m 100.35714,583.79075 3.57143,8.92858 -42.142856,4.64285 -1.428571,-11.42857 12.857143,1.78572 z"
         style="fill:none;stroke:#000000;stroke-width:1px;stroke-linecap:butt;stroke-linejoin:miter;stroke-opacity:1" />
      <path
         inkscape:connector-curvature="0"
         id="path3294"
         d="m 67.5,560.21933 1.428571,76.42857 -4.285714,16.42857 -12.857143,7.85714 -20.714285,0.35714 -12.142858,-10.71428 0,-13.92857 9.285715,-9.28572 20,-2.85714 30,4.28571 30.714284,14.28572 -9.999999,10.35714 -22.142857,-13.92857 -22.142857,-6.42857 -18.571428,1.42857 -8.571429,6.07143 2.142857,8.21428 15,3.57143 10,-5 4.285714,-14.28571 -2.857142,-73.57143 z"
         style="fill:none;stroke:#000000;stroke-width:1px;stroke-linecap:butt;stroke-linejoin:miter;stroke-opacity:1" />
    </g>
    <g
       id="g3306">
      <path
         inkscape:connector-curvature="0"
         id="path3300"
         d="m -115.66247,-276.49349 -5.05076,10.10153 38.385798,11.61675 1.010152,-11.61675 z"
         style="fill:none;stroke:#000000;stroke-width:1px;stroke-linecap:butt;stroke-linejoin:miter;stroke-opacity:1" />
      <path
         inkscape:connector-curvature="0"
         id="path3304"
         d="m -126.77414,-250.22952 -6.06092,48.99239 9.09137,1.51523 14.14214,-14.14213 26.769041,-6.06092 13.63706,5.05077 4.04061,14.64721 -12.121831,13.63706 -37.37564,2.52538 1.01015,11.61675 27.274117,-2.0203 20.708128,-9.09138 9.596449,-17.17259 -1.010153,-15.65736 -26.769042,-11.61676 -23.233509,5.05076 -14.64721,8.5863 4.04061,-32.32488 z"
         style="fill:none;stroke:#000000;stroke-width:1px;stroke-linecap:butt;stroke-linejoin:miter;stroke-opacity:1" />
    </g>
    <g
       id="g3314">
      <path
         inkscape:connector-curvature="0"
         id="path3310"
         d="m -133.34014,-60.320846 -2.52538,45.456865 4.54569,20.2030509 10.6066,0 11.11168,-14.6472119 -5.05076,-7.071068 -9.59645,10.1015256 -2.52538,-27.7791946 5.55583,-25.75889 z"
         style="fill:none;stroke:#000000;stroke-width:1px;stroke-linecap:butt;stroke-linejoin:miter;stroke-opacity:1" />
      <path
         inkscape:connector-curvature="0"
         id="path3312"
         d="m -86.368043,-62.846227 5.050763,50.507627 -7.071068,28.789348 -18.182742,13.131983 -12.62691,4.04061 6.56599,11.111678 22.223357,-14.142135 12.626907,-14.647212 6.565992,-21.7182801 -2.020305,-58.5888479 z"
         style="fill:none;stroke:#000000;stroke-width:1px;stroke-linecap:butt;stroke-linejoin:miter;stroke-opacity:1" />
    </g>
    <path
       style="fill:none;stroke:#000000;stroke-width:1px;stroke-linecap:butt;stroke-linejoin:miter;stroke-opacity:1"
       d="m -96.469568,152.31627 -34.850262,4.54568 -2.02031,-10.6066 47.477174,-3.03046 8.586296,5.55584 -31.31473,36.36549 24.243663,-5.05076 18.182745,7.57614 9.596449,19.69798 -6.565991,20.20305 -25.253814,14.14214 -26.263962,-1.01016 -8.08122,-13.13198 5.05076,-15.65736 15.65736,-2.02031 17.677673,11.61675 1.010152,9.09138 -7.576144,3.53553 -4.545686,-10.6066 -13.131985,-4.54569 -6.06091,9.09138 6.06091,6.06091 29.294425,-6.56599 10.606602,-9.09137 0.505076,-17.67767 -19.697974,-13.63706 -30.809649,9.59645 -20.20305,22.22335 -9.59645,-9.59645 z"
       id="path3318"
       inkscape:connector-curvature="0" />
    <g
       id="g3324">
      <path
         inkscape:connector-curvature="0"
         id="path3320"
         d="m -132.83506,351.31632 0.50508,104.55078 12.12183,-2.52538 -4.54569,-61.6193 4.04061,-40.4061 z"
         style="fill:none;stroke:#000000;stroke-width:1px;stroke-linecap:butt;stroke-linejoin:miter;stroke-opacity:1" />
      <path
         inkscape:connector-curvature="0"
         id="path3322"
         d="m -156.06857,382.12597 4.54569,10.6066 24.74874,-8.08122 -11.11168,22.72843 -21.21321,24.24366 9.09138,8.5863 32.82995,-40.4061 25.758895,-19.1929 10.101525,1.01015 3.535534,6.06092 -3.535534,49.49747 8.586297,10.6066 11.111678,-1.01015 18.182746,-21.71828 -11.616755,-4.04061 -7.576144,13.13199 -6.565991,0 0.505076,-51.01271 -6.565992,-9.09137 -15.152288,-3.53554 -32.829957,21.71828 5.05076,-10.6066 6.06092,-3.03045 -10.6066,-4.54569 -17.67767,6.06091 z"
         style="fill:none;stroke:#000000;stroke-width:1px;stroke-linecap:butt;stroke-linejoin:miter;stroke-opacity:1" />
    </g>
    <path
       style="fill:none;stroke:#000000;stroke-width:1px;stroke-linecap:butt;stroke-linejoin:miter;stroke-opacity:1"
       d="m -135.86552,567.48896 4.04061,9.59645 33.840113,-5.05076 -49.497473,56.56854 6.56599,8.08122 19.69797,-18.18275 25.253818,-11.61675 21.71828,6.06092 5.555839,14.64721 -3.535534,16.16244 -16.162441,7.07107 -31.314732,-1.01016 3.03046,11.61676 28.284272,-0.50508 22.223356,-8.5863 8.586297,-22.72843 -9.091373,-21.2132 -18.182746,-9.09137 -23.738586,4.04061 29.799502,-34.85027 -10.101526,-6.56599 z"
       id="path3328"
       inkscape:connector-curvature="0" />
    <g
       id="g3334">
      <path
         inkscape:connector-curvature="0"
         id="path3330"
         d="m -296.98485,-275.48334 0,104.04571 12.62691,-3.53553 -2.02031,-62.62946 1.01016,-36.87057 z"
         style="fill:none;stroke:#000000;stroke-width:1px;stroke-linecap:butt;stroke-linejoin:miter;stroke-opacity:1" />
      <path
         inkscape:connector-curvature="0"
         id="path3332"
         d="m -320.21836,-247.70414 4.04061,9.59645 20.94273,-4.63235 -2.54019,16.34879 -27.57185,30.45615 8.44016,8.40683 14.30058,-19.35751 21.78391,-19.60516 15.0446,-10.27484 19.55004,-2.9797 11.90775,4.45574 6.53062,14.85972 -3.53553,20.20305 -12.62691,9.59645 -19.1929,4.04061 4.54569,10.10152 25.75889,-9.59645 14.14213,-16.66751 2.02031,-25.25382 -17.17259,-19.1929 -21.21321,-2.0203 -32.32488,12.62691 10.10153,-12.62691 -8.08122,-7.07107 z"
         style="fill:none;stroke:#000000;stroke-width:1px;stroke-linecap:butt;stroke-linejoin:miter;stroke-opacity:1"
         sodipodi:nodetypes="ccccccccccccccccccccccccc" />
    </g>
    <g
       id="g3346">
      <path
         inkscape:connector-curvature="0"
         id="path3340"
         d="m -316.17775,577.59049 4.04061,10.6066 64.64977,-8.5863 -1.51523,-9.59645 -42.42641,7.07107 z"
         style="fill:none;stroke:#000000;stroke-width:1px;stroke-linecap:butt;stroke-linejoin:miter;stroke-opacity:1" />
      <path
         inkscape:connector-curvature="0"
         id="path3342"
         d="m -277.79195,559.40774 -16.16244,33.33503 -22.72843,24.24367 9.09137,7.07106 9.59645,-13.13198 18.68782,-7.07107 10.6066,2.52538 1.01016,34.85027 9.59644,-1.01016 0.50508,-29.29442 -7.07107,-11.61675 -9.09137,-2.52539 -15.15229,3.53554 22.72843,-38.89087 z"
         style="fill:none;stroke:#000000;stroke-width:1px;stroke-linecap:butt;stroke-linejoin:miter;stroke-opacity:1" />
      <path
         inkscape:connector-curvature="0"
         id="path3344"
         d="m -231.32493,595.77323 -45.45687,23.23351 -18.18274,13.63706 -5.05077,10.6066 3.03046,11.61676 14.14214,7.57614 48.48732,0.50508 3.03046,-10.60661 -35.86042,2.02031 -17.67767,-3.53553 -3.03046,-8.5863 9.09138,-11.61675 25.25381,-14.64722 32.32488,-11.11167 z"
         style="fill:none;stroke:#000000;stroke-width:1px;stroke-linecap:butt;stroke-linejoin:miter;stroke-opacity:1" />
    </g>
    <path
       style="fill:none;stroke:#000000;stroke-width:1px;stroke-linecap:butt;stroke-linejoin:miter;stroke-opacity:1"
       d="m -446.48742,-280.02902 -23.3945,51.55215 -23.07252,40.37173 9.68311,6.65265 17.59101,-30.89631 14.41758,-10.17739 8.93848,-4.44444 5.1628,4.10188 2.5,26.67187 4.69991,10.04146 7.71779,4.11119 18.18274,-3.03045 22.22336,-34.34519 -11.82597,-8.37708 -9.91769,25.30457 -7.81685,8.93969 -8.82529,0.39679 -5.05076,-10.10153 -3.03046,-25.25381 -5.02568,-6.37716 -8.64727,-0.33677 -17.64178,7.72408 25.48841,-48.19146 z"
       id="path3351"
       inkscape:connector-curvature="0"
       sodipodi:nodetypes="cccccccccccccccccccccccc" />
  </g>
</svg>
