<?xml version="1.0" encoding="UTF-8" standalone="no"?>
<!-- Created with Inkscape (http://www.inkscape.org/) -->

<svg
   xmlns:dc="http://purl.org/dc/elements/1.1/"
   xmlns:cc="http://creativecommons.org/ns#"
   xmlns:rdf="http://www.w3.org/1999/02/22-rdf-syntax-ns#"
   xmlns:svg="http://www.w3.org/2000/svg"
   xmlns="http://www.w3.org/2000/svg"
   xmlns:xlink="http://www.w3.org/1999/xlink"
   xmlns:sodipodi="http://sodipodi.sourceforge.net/DTD/sodipodi-0.dtd"
   xmlns:inkscape="http://www.inkscape.org/namespaces/inkscape"
   width="744.09448819"
   height="1052.3622047"
   id="svg2"
   version="1.1"
   inkscape:version="0.48.5 r10040"
   sodipodi:docname="hiragana.svg">
  <defs
     id="defs4" />
  <sodipodi:namedview
     id="base"
     pagecolor="#ffffff"
     bordercolor="#666666"
     borderopacity="1.0"
     inkscape:pageopacity="0.0"
     inkscape:pageshadow="2"
     inkscape:zoom="0.7"
     inkscape:cx="842.13673"
     inkscape:cy="830.13317"
     inkscape:document-units="px"
     inkscape:current-layer="layer2"
     showgrid="false"
     inkscape:window-width="1289"
     inkscape:window-height="1393"
     inkscape:window-x="29"
     inkscape:window-y="91"
     inkscape:window-maximized="0" />
  <metadata
     id="metadata7">
    <rdf:RDF>
      <cc:Work
         rdf:about="">
        <dc:format>image/svg+xml</dc:format>
        <dc:type
           rdf:resource="http://purl.org/dc/dcmitype/StillImage" />
        <dc:title />
      </cc:Work>
    </rdf:RDF>
  </metadata>
  <g
     inkscape:label="Layer 1"
     inkscape:groupmode="layer"
     id="layer1"
     style="display:inline;opacity:0.16842105"
     sodipodi:insensitive="true">
    <image
       y="-429.96545"
       x="-564.62427"
       id="image2997"
       xlink:href="file:///C:/Users/fblos_000/Dropbox/UJ/VI sem/licencjat/hiragana.png"
       height="1208"
       width="2000" />
  </g>
  <g
     inkscape:groupmode="layer"
     id="layer2"
     inkscape:label="Warstwa">
    <g
       id="g3141">
      <path
         inkscape:connector-curvature="0"
         id="path3127"
         d="m 1207.1429,-276.92352 -0.7143,15 -22.5,-0.35715 0.3571,10.71429 21.7857,-0.35715 -0.3571,21.07143 -16.0714,10.35715 -8.9286,17.14285 1.4286,16.07143 10.3571,10 13.5714,-0.35714 10.3572,-6.07143 1.7857,3.21429 10,-5.35715 -3.2143,-6.78571 14.2857,-21.42857 10.3572,-30.71429 -11.7858,-2.14286 -8.5714,27.14286 -10,19.28572 -14.2857,12.5 -12.1429,-1.78572 -0.7142,-14.64286 8.9285,-13.92857 15,-8.57143 0.3572,-26.42857 23.5714,-1.78571 13.9286,-2.14286 -3.2143,-10 -21.7857,5.35715 -11.0715,0 1.4286,-12.5 z"
         style="fill:none;stroke:#000000;stroke-width:1px;stroke-linecap:butt;stroke-linejoin:miter;stroke-opacity:1" />
      <path
         inkscape:connector-curvature="0"
         id="path3135"
         d="m 1204.6429,-221.20924 7.8571,26.78571 9.2857,-8.57142 -7.5,-25.71429 z"
         style="fill:none;stroke:#000000;stroke-width:1px;stroke-linecap:butt;stroke-linejoin:miter;stroke-opacity:1" />
      <path
         inkscape:connector-curvature="0"
         id="path3137"
         d="m 1215.3571,-235.13781 -1.4285,10.35714 18.9285,-4.28571 4.2858,-7.5 z"
         style="fill:none;stroke:#000000;stroke-width:1px;stroke-linecap:butt;stroke-linejoin:miter;stroke-opacity:1" />
      <path
         inkscape:connector-curvature="0"
         id="path3139"
         d="m 1245,-234.78067 -2.5,8.21429 13.9286,2.5 8.9285,10 1.4286,16.42857 -10.3571,9.64286 -19.6429,6.07142 6.0714,11.78572 22.5,-10.71429 13.2143,-16.42857 0,-18.21428 -11.0714,-13.92858 z"
         style="fill:none;stroke:#000000;stroke-width:1px;stroke-linecap:butt;stroke-linejoin:miter;stroke-opacity:1" />
    </g>
    <g
       id="g2999">
      <path
         inkscape:connector-curvature="0"
         id="path2995"
         d="m 1185.7143,-51.209246 11.4286,3.571429 -3.5715,39.9999996 5,23.5714284 4.2857,2.142857 8.5715,-17.14285681 8.5714,5.00000001 -7.1429,19.9999998 -10,7.857143 -7.1428,-4.285714 -10,-22.1428574 -4.2857,-32.8571426 z"
         style="fill:none;stroke:#000000;stroke-width:1px;stroke-linecap:butt;stroke-linejoin:miter;stroke-opacity:1" />
      <path
         inkscape:connector-curvature="0"
         id="path2997"
         d="m 1260,-44.066389 -10,7.857143 12.8571,16.428571 10,32.142858 12.1429,-3.571429 -7.8571,-28.571429 z"
         style="fill:none;stroke:#000000;stroke-width:1px;stroke-linecap:butt;stroke-linejoin:miter;stroke-opacity:1" />
    </g>
    <g
       id="g3007">
      <path
         inkscape:connector-curvature="0"
         id="path3003"
         d="m 1212.8571,143.07647 -2.8571,11.42857 45,8.57143 1.4286,-11.42857 z"
         style="fill:none;stroke:#000000;stroke-width:1px;stroke-linecap:butt;stroke-linejoin:miter;stroke-opacity:1" />
      <path
         inkscape:connector-curvature="0"
         id="path3005"
         d="m 1195,183.79075 5,11.42858 25,-9.28572 20.7143,-0.71428 10,9.28571 2.1428,13.57143 -9.2857,22.14286 -31.4285,12.85714 6.4285,10.71428 23.5715,-8.57142 19.2857,-25 4.2857,-25 -12.8572,-16.42858 -18.5714,-3.57142 z"
         style="fill:none;stroke:#000000;stroke-width:1px;stroke-linecap:butt;stroke-linejoin:miter;stroke-opacity:1" />
    </g>
    <g
       id="g3015">
      <path
         inkscape:connector-curvature="0"
         id="path3011"
         d="m 1207.8571,344.1479 -3.5714,9.64285 37.8572,7.14286 0.3571,-10.35714 z"
         style="fill:none;stroke:#000000;stroke-width:1px;stroke-linecap:butt;stroke-linejoin:miter;stroke-opacity:1" />
      <path
         inkscape:connector-curvature="0"
         id="path3013"
         d="m 1190.7143,377.36218 3.5714,11.78572 39.6429,-5 -58.2143,57.14285 10,10 27.1428,-31.42857 13.5715,-6.78571 7.1428,0.71428 3.5715,28.92858 6.4285,5.35714 33.2143,1.42857 3.9286,-14.64286 -28.5714,3.21429 -6.4286,-2.85714 -2.1429,-26.42858 -7.1428,-5.35714 -7.5,0.71429 24.6428,-23.57143 -11.0714,-7.85714 z"
         style="fill:none;stroke:#000000;stroke-width:1px;stroke-linecap:butt;stroke-linejoin:miter;stroke-opacity:1" />
    </g>
    <g
       id="g3154">
      <path
         inkscape:connector-curvature="0"
         id="path3147"
         d="m 1211.0714,555.57647 0.3572,20 -24.6429,0.35714 0.3572,11.42857 22.8571,-2.14285 0.7143,22.5 -15,8.57143 -11.0714,13.21428 0,15.71429 9.2857,10 14.2857,1.42857 12.8571,-7.14286 0.7143,-36.42857 -11.7857,5 1.0714,27.14286 -9.6428,2.5 -7.5,-5.35715 1.4285,-15.71428 26.4286,-12.5 0,-31.07143 27.1429,-3.21428 -2.1429,-9.64286 -24.6428,4.64286 1.4285,-18.92858 z"
         style="fill:none;stroke:#000000;stroke-width:1px;stroke-linecap:butt;stroke-linejoin:miter;stroke-opacity:1" />
      <path
         inkscape:connector-curvature="0"
         id="path3150"
         d="m 1220,603.79076 2.1429,11.78571 18.5714,-5 18.5714,1.42857 10.7143,7.85714 0,13.92858 -10,8.92857 -10.7143,-1.78572 -7.5,-8.21428 -8.2143,7.14285 7.8572,9.64286 18.5714,3.57143 14.6429,-6.78571 9.2857,-16.42858 -4.2857,-15.35714 -16.7858,-11.78571 -30.3571,-1.42857 z"
         style="fill:none;stroke:#000000;stroke-width:1px;stroke-linecap:butt;stroke-linejoin:miter;stroke-opacity:1" />
      <path
         inkscape:connector-curvature="0"
         id="path3152"
         d="m 1262.8571,566.6479 -6.7857,9.28571 13.5715,7.14286 8.9285,11.07143 7.8572,-10 z"
         style="fill:none;stroke:#000000;stroke-width:1px;stroke-linecap:butt;stroke-linejoin:miter;stroke-opacity:1" />
    </g>
    <g
       id="g3164">
      <path
         sodipodi:nodetypes="ccccccccccccccccccccccc"
         inkscape:connector-curvature="0"
         id="path3160"
         d="m 1045.7143,-268.70924 -5.7143,26.42857 -25.3571,1.42857 2.5,11.78572 20,-2.5 -22.5,53.92857 10.3571,4.64286 23.2143,-61.07143 13.2143,-0.71429 7.8571,5.35714 0,28.21429 -7.1428,17.14286 -9.2858,-6.42857 -7.8571,7.5 11.0714,10 10,0 10,-12.85715 4.6429,-39.28571 -4.6429,-12.14286 -11.4285,-6.42857 -13.5715,0 5,-23.57143 z"
         style="fill:none;stroke:#000000;stroke-width:1px;stroke-linecap:butt;stroke-linejoin:miter;stroke-opacity:1" />
      <path
         inkscape:connector-curvature="0"
         id="path3162"
         d="m 1089.6429,-245.8521 15,21.78572 10,22.14285 10,-5.71428 -14.2858,-29.28572 -12.8571,-16.07142 z"
         style="fill:none;stroke:#000000;stroke-width:1px;stroke-linecap:butt;stroke-linejoin:miter;stroke-opacity:1" />
    </g>
    <path
       style="fill:none;stroke:#000000;stroke-width:1px;stroke-linecap:butt;stroke-linejoin:miter;stroke-opacity:1"
       d="m 1053.5714,-62.994955 5,16.428572 -28.9285,0 1.7857,11.071428 30.3571,-2.5 6.7857,13.214286 -45.7143,2.142857 2.1429,10 47.1429,-2.5 8.9285,13.9285714 -23.2143,-3.9285714 -20,6.4285714 -10,14.2857146 6.7858,16.428571 21.0714,7.857143 32.5,-1.071429 1.7857,-10 -41.0714,1.428572 -12.1429,-12.857143 10.3572,-10.0000001 17.5,-3.5714285 25.3571,6.0714285 9.2857,-7.1428571 -16.4286,-19.9999998 30.3572,-6.071429 -5,-10.357142 -29.2857,6.785714 -7.8572,-13.571429 25.7143,-4.642857 -6.4286,-9.285714 -21.0714,5.714286 -3.9286,-16.785715 z"
       id="path3168"
       inkscape:connector-curvature="0" />
    <path
       style="fill:none;stroke:#000000;stroke-width:1px;stroke-linecap:butt;stroke-linejoin:miter;stroke-opacity:1"
       d="m 1074.2857,143.07647 -12.1428,21.07143 -31.0715,30 1.7857,7.14285 49.2858,49.64286 8.5714,-11.07143 -47.8572,-40.71428 0,-5.35715 30.7143,-27.85714 12.8572,-17.14286 z"
       id="path3052"
       inkscape:connector-curvature="0" />
    <g
       id="g3175">
      <path
         inkscape:connector-curvature="0"
         id="path3054"
         d="m 1035.3571,359.86218 -13.5714,0 -3.5714,54.28572 7.8571,27.14285 6.7857,3.21429 13.9286,-11.07143 -7.1428,-8.92857 -6.0715,6.07143 -5,-17.14286 z"
         style="fill:none;stroke:#000000;stroke-width:1px;stroke-linecap:butt;stroke-linejoin:miter;stroke-opacity:1" />
      <path
         inkscape:connector-curvature="0"
         id="path3173"
         d="m 1086.4286,351.6479 1.7857,28.92857 -35.7143,-1.78571 2.5,11.42857 33.2143,-1.42857 0.3571,29.28571 -8.5714,20.71429 -15.7143,9.64285 6.0714,9.64286 17.5,-12.14286 10.3572,-17.14285 0.7143,-39.64286 18.9285,-4.64286 -2.5,-8.92857 -17.1428,3.21429 -0.7143,-26.07143 z"
         style="fill:none;stroke:#000000;stroke-width:1px;stroke-linecap:butt;stroke-linejoin:miter;stroke-opacity:1" />
    </g>
    <g
       id="g3069">
      <path
         inkscape:connector-curvature="0"
         id="path3065"
         d="m 1044.2857,567.00504 -2.1428,11.78571 22.5,4.64286 34.6428,0 0,-11.07143 -35.7143,1.07143 z"
         style="fill:none;stroke:#000000;stroke-width:1px;stroke-linecap:butt;stroke-linejoin:miter;stroke-opacity:1" />
      <path
         inkscape:connector-curvature="0"
         id="path3067"
         d="m 1042.8571,622.36218 -10.7142,-3.21428 -3.5715,12.14285 2.8572,12.5 16.4285,8.57143 62.8572,1.78572 -0.7143,-12.85715 -51.0714,2.14286 -16.4286,-5.71428 -2.5,-6.42858 z"
         style="fill:none;stroke:#000000;stroke-width:1px;stroke-linecap:butt;stroke-linejoin:miter;stroke-opacity:1" />
    </g>
    <path
       style="fill:none;stroke:#000000;stroke-width:1px;stroke-linecap:butt;stroke-linejoin:miter;stroke-opacity:1"
       d="m 901.56115,-247.95668 -9.34391,-22.60217 12.6269,-1.64149 7.07107,22.72843 27.65293,-7.19734 4.67195,9.97526 -27.27412,6.06091 24.62247,33.46131 -8.46003,8.08122 -18.30901,-6.18719 -23.86485,-0.88388 -12.2481,11.36421 3.91434,9.09138 15.40482,6.9448 31.81981,-1.13642 -1.51523,10.73287 -33.84011,0.25253 -20.96067,-11.11167 -4.92449,-10.98541 0.88388,-9.59645 15.27856,-13.38452 22.34963,-1.13643 14.01586,2.27285 -15.02602,-25.88516 -42.0476,2.77792 -3.40926,-10.73287 z"
       id="path3104"
       inkscape:connector-curvature="0" />
    <path
       style="fill:none;stroke:#000000;stroke-width:1px;stroke-linecap:butt;stroke-linejoin:miter;stroke-opacity:1"
       d="m 882.5,-58.709247 -16.42857,-1.428571 1.42857,10.357143 -0.35714,64.642857 8.21428,17.5 21.78572,6.428572 23.92857,-6.428572 22.85714,-23.9285714 -10.35714,-7.85714282 -15.71429,18.92857122 -18.21428,8.214286 -14.28572,-2.857143 -7.5,-11.428571 1.78572,-65.357143 z"
       id="path3081"
       inkscape:connector-curvature="0" />
    <g
       id="g3190">
      <path
         inkscape:connector-curvature="0"
         id="path3186"
         d="m 902.85714,140.93362 2.85714,21.78571 -57.14286,-0.71429 2.85715,11.07143 53.21428,-1.42857 -2.85714,37.5 1.42857,8.57143 -2.5,11.07143 -21.07143,14.28571 6.78572,9.64286 17.85714,-12.85714 8.57143,-18.21429 2.5,-51.07143 40.35714,-1.78571 -2.85714,-9.28572 -37.85714,1.78572 0.35714,-19.28572 z"
         style="fill:none;stroke:#000000;stroke-width:1px;stroke-linecap:butt;stroke-linejoin:miter;stroke-opacity:1" />
      <path
         inkscape:connector-curvature="0"
         id="path3188"
         d="m 904.28571,184.86219 -12.14286,-2.14286 -13.92857,5.35714 -3.92857,17.14286 8.92857,14.64286 15,0.71428 6.78572,-3.92857 -1.78572,-8.21428 -7.5,4.28571 -7.14286,-1.07143 -6.07142,-8.57143 4.28571,-10 6.07143,-3.21428 11.07143,6.42857 z"
         style="fill:none;stroke:#000000;stroke-width:1px;stroke-linecap:butt;stroke-linejoin:miter;stroke-opacity:1" />
    </g>
    <path
       style="fill:none;stroke:#000000;stroke-width:1px;stroke-linecap:butt;stroke-linejoin:miter;stroke-opacity:1"
       d="m 871.07142,362.71933 0.35715,26.07143 -26.78572,-1.07143 2.85715,12.14286 22.85714,-2.14286 1.42857,33.57143 11.42857,17.85714 54.28572,1.42857 2.85714,-12.85714 -47.14286,2.5 -9.64286,-5 -1.42857,-37.5 33.21429,-2.5 -0.35714,17.14286 -15,-1.42858 -1.07143,10.71429 17.14285,0.71429 7.5,-7.14286 2.85715,-21.78572 27.85714,-1.78571 0,-11.42857 -28.21429,5.35714 0.71429,-28.21428 -11.78571,0.35714 0.35714,27.85714 -33.21429,1.78572 0.71429,-25.8521 z"
       id="path3180"
       inkscape:connector-curvature="0"
       sodipodi:nodetypes="cccccccccccccccccccccccccccc" />
    <path
       style="fill:none;stroke:#000000;stroke-width:1px;stroke-linecap:butt;stroke-linejoin:miter;stroke-opacity:1"
       d="m 870.71429,569.50504 3.92857,10.71429 32.5,-3.21429 -37.85715,30.71429 -22.14285,0.71428 3.21428,10.71429 55.35715,-6.42857 -17.85715,16.42857 -3.57143,15.71428 3.57143,12.85715 10.71429,6.78571 13.57143,3.57143 19.28571,-0.71429 -3.21428,-12.14285 -20.35715,1.07142 -10,-4.28571 -2.5,-12.14286 10,-17.14285 17.85715,-11.07143 23.92857,-2.5 -5,-9.28572 -55.71429,5.35715 41.78572,-31.07143 -9.64286,-6.78572 z"
       id="path3102"
       inkscape:connector-curvature="0" />
    <g
       id="g3203">
      <path
         inkscape:connector-curvature="0"
         id="path3197"
         d="m 710.35714,-276.20924 -3.92857,21.78571 -23.21429,0.35715 1.42857,11.42857 18.21429,-1.42857 -11.42857,40.35714 -10.35714,23.57143 10,7.5 23.57142,-72.5 30.35715,-5 -2.5,-10.71429 -23.92858,5.35715 5,-18.21429 z"
         style="fill:none;stroke:#000000;stroke-width:1px;stroke-linecap:butt;stroke-linejoin:miter;stroke-opacity:1" />
      <path
         inkscape:connector-curvature="0"
         id="path3199"
         d="m 735.35714,-238.3521 1.78571,11.42857 19.64286,-1.78571 20.35714,0.35714 0.71429,-10.35714 z"
         style="fill:none;stroke:#000000;stroke-width:1px;stroke-linecap:butt;stroke-linejoin:miter;stroke-opacity:1" />
      <path
         inkscape:connector-curvature="0"
         id="path3201"
         d="m 731.78571,-206.92353 2.5,12.85715 12.14286,5.35714 33.57143,-1.07143 -2.5,12.14286 -34.28572,-1.07143 -16.42857,-8.21429 -5,-18.92857 z"
         style="fill:none;stroke:#000000;stroke-width:1px;stroke-linecap:butt;stroke-linejoin:miter;stroke-opacity:1" />
    </g>
    <path
       style="fill:none;stroke:#000000;stroke-width:1px;stroke-linecap:butt;stroke-linejoin:miter;stroke-opacity:1"
       d="m 717.14285,-66.566383 -3.57143,24.285714 -24.64285,-2.142857 1.42857,11.428571 20.71428,0 -5.71428,37.8571429 10.71428,4.2857143 16.78572,-13.5714285 21.07143,-2.1428571 11.78571,9.6428571 -0.35714,13.2142853 -11.07143,10.357143 -37.5,0.714286 1.78571,11.428571 28.92858,-1.785714 22.14285,-8.928571 8.92857,-16.071429 -5,-17.4999999 -16.78571,-10.0000001 -17.14286,1.785714 -22.5,9.2857147 6.78572,-30.7142857 37.85714,-3.571428 -2.5,-10.714286 -35,7.142857 4.28571,-22.142857 z"
       id="path3209"
       inkscape:connector-curvature="0" />
    <path
       style="fill:none;stroke:#000000;stroke-width:1px;stroke-linecap:butt;stroke-linejoin:miter;stroke-opacity:1"
       d="m 677.14286,178.43361 -4.28572,-12.14286 53.92857,-9.28571 26.42858,0.35714 17.14285,9.28572 6.42857,16.42857 -1.07142,17.14286 -12.85715,17.14285 -23.92857,9.64286 -29.28571,2.5 -2.85715,-13.21429 31.07143,-0.71428 17.5,-7.85714 10.35715,-13.92858 -3.21429,-17.85714 -11.07143,-9.28571 -21.78571,-1.42857 z"
       id="path3126"
       inkscape:connector-curvature="0" />
    <path
       style="fill:none;stroke:#000000;stroke-width:1px;stroke-linecap:butt;stroke-linejoin:miter;stroke-opacity:1"
       d="m 681.42857,378.07647 -4.64286,-13.92857 46.42858,-2.14286 48.57142,-6.78571 5,11.78571 -18.57142,0.71429 -22.14286,15 -13.57143,21.42857 0.35714,17.5 9.64286,11.07143 15.71429,5.35714 15,-1.07143 -2.85715,13.92857 -21.07143,-1.78571 -17.5,-9.64286 -10,-18.92857 0,-19.28572 14.28572,-20.71428 11.42857,-10 -32.14286,2.85714 z"
       id="path3128"
       inkscape:connector-curvature="0" />
    <g
       id="g3225">
      <path
         inkscape:connector-curvature="0"
         id="path3221"
         d="m 720.71429,565.93361 5,41.42857 -9.28572,2.14286 -5.71428,-28.57143 -2.14286,-17.14286 z"
         style="fill:none;stroke:#000000;stroke-width:1px;stroke-linecap:butt;stroke-linejoin:miter;stroke-opacity:1" />
      <path
         inkscape:connector-curvature="0"
         id="path3223"
         d="m 760,589.50504 -39.28571,14.28571 -20.71429,15 -6.42857,22.14286 7.14286,14.28572 31.42857,5.71428 32.14285,-2.14286 2.14286,-10.71428 -44.28571,2.14286 -15.71429,-5 -3.57143,-12.85715 19.28572,-17.14285 47.14285,-17.85715 z"
         style="fill:none;stroke:#000000;stroke-width:1px;stroke-linecap:butt;stroke-linejoin:miter;stroke-opacity:1" />
    </g>
    <g
       id="g3224">
      <path
         inkscape:connector-curvature="0"
         id="path3211"
         d="m 546.74506,-276.99856 -6.06091,22.47589 -24.4962,0.50508 2.0203,9.59645 18.43529,-1.26269 -12.87945,30.05204 -10.6066,16.16244 10.10153,6.31345 16.41497,-29.54696 9.34392,-25.00128 25.00127,-4.54568 -4.54569,-10.10153 -16.92005,4.79823 6.81853,-17.67767 z"
         style="fill:none;stroke:#000000;stroke-width:1px;stroke-linecap:butt;stroke-linejoin:miter;stroke-opacity:1" />
      <path
         inkscape:connector-curvature="0"
         id="path3217"
         d="m 588.41385,-258.0582 -4.04061,8.33376 28.03174,15.40483 6.06091,-9.09138 z"
         style="fill:none;stroke:#000000;stroke-width:1px;stroke-linecap:butt;stroke-linejoin:miter;stroke-opacity:1" />
      <path
         inkscape:connector-curvature="0"
         id="path3219"
         d="m 575.02933,-234.57215 1.51523,29.29442 -14.14213,-2.0203 -15.15229,5.3033 -4.79823,11.36421 3.03046,11.36422 11.86929,6.06091 15.15229,-0.25253 11.36422,-7.07107 3.03046,-12.62691 -11.61676,-3.78807 -0.50507,9.84899 -5.55584,4.79822 -12.12183,-0.50508 -4.54569,-3.28299 1.26269,-9.09137 9.34391,-3.78808 23.23351,6.31346 1.51523,-41.66879 z"
         style="fill:none;stroke:#000000;stroke-width:1px;stroke-linecap:butt;stroke-linejoin:miter;stroke-opacity:1" />
      <path
         inkscape:connector-curvature="0"
         id="path3222"
         d="m 584.62578,-203.7625 1.01015,10.10152 24.4962,13.8896 5.80838,-10.35406 z"
         style="fill:none;stroke:#000000;stroke-width:1px;stroke-linecap:butt;stroke-linejoin:miter;stroke-opacity:1" />
    </g>
    <g
       id="g3135">
      <path
         inkscape:connector-curvature="0"
         id="path3129"
         d="m 525.71429,-56.209245 -1.42858,67.857142 7.14286,23.571429 5.71429,3.571429 14.28571,-10.714286 -7.14286,-10.714286 -7.14285,7.857143 -0.71429,-58.571429 1.42857,-22.857142 z"
         style="fill:none;stroke:#000000;stroke-width:1px;stroke-linecap:butt;stroke-linejoin:miter;stroke-opacity:1" />
      <path
         inkscape:connector-curvature="0"
         id="path3131"
         d="m 562.85714,-44.066388 2.14286,9.285714 50.71429,-2.857143 -2.14286,-10 z"
         style="fill:none;stroke:#000000;stroke-width:1px;stroke-linecap:butt;stroke-linejoin:miter;stroke-opacity:1" />
      <path
         inkscape:connector-curvature="0"
         id="path3133"
         d="m 559.28571,-0.49495968 12.14286,-0.71428572 2.14286,13.5714284 15.71428,7.142857 31.42858,-1.428571 -3.57143,12.142857 -31.42857,0.714286 -17.14286,-7.142857 z"
         style="fill:none;stroke:#000000;stroke-width:1px;stroke-linecap:butt;stroke-linejoin:miter;stroke-opacity:1" />
    </g>
    <g
       id="g3236">
      <path
         inkscape:connector-curvature="0"
         id="path3230"
         d="m 564.92781,150.5485 -2.02031,16.41498 -15.65736,3.283 -14.14214,10.35406 -6.31345,-18.94036 -12.87945,2.77792 11.61676,24.4962 -7.82868,11.11168 -5.55584,19.95051 4.54568,16.41498 11.36422,6.81853 12.37437,-3.03046 9.09137,-8.83883 3.53554,3.03045 9.09137,-7.82868 -6.06092,-5.80838 12.12183,-27.27411 4.04061,-16.66752 -12.37436,0.25254 -5.30331,25.75889 -11.36421,20.70812 -9.34391,7.82869 -7.82868,0 -2.52539,-10.10153 1.01016,-13.8896 4.04061,-8.83883 14.89975,-15.15229 15.9099,-6.31345 13.38452,-1.01016 4.79822,-23.2335 z"
         style="fill:none;stroke:#000000;stroke-width:1px;stroke-linecap:butt;stroke-linejoin:miter;stroke-opacity:1" />
      <path
         inkscape:connector-curvature="0"
         id="path3232"
         d="m 536.64354,189.43938 13.13198,23.48604 -5.3033,10.35407 -16.92006,-25.50636 z"
         style="fill:none;stroke:#000000;stroke-width:1px;stroke-linecap:butt;stroke-linejoin:miter;stroke-opacity:1" />
      <path
         inkscape:connector-curvature="0"
         id="path3234"
         d="m 571.24126,177.57008 10.35406,-0.75761 15.65737,8.5863 7.82868,16.41497 -4.54569,18.43529 -10.85913,-6.06092 -13.63706,0 -7.82869,8.83884 -1.26269,12.37437 9.34391,7.57614 14.64722,1.76777 13.88959,-11.11168 9.09138,8.08122 7.82868,-8.5863 -11.61676,-9.09137 -14.14213,2.27284 -5.05076,6.31346 -8.33376,2.52538 -6.06092,-2.77792 1.76777,-8.83884 4.29315,-1.01015 13.13198,4.79823 14.14214,-2.77792 4.29314,-12.87945 -0.50507,-20.70813 -13.13199,-16.66751 -13.38452,-6.06092 -13.13198,-1.51523 z"
         style="fill:none;stroke:#000000;stroke-width:1px;stroke-linecap:butt;stroke-linejoin:miter;stroke-opacity:1" />
    </g>
    <g
       id="g3250">
      <path
         inkscape:connector-curvature="0"
         id="path3244"
         d="m 540.43161,351.56886 -0.50508,26.01143 -25.00127,4.79822 5.55584,11.36422 19.95051,-7.07107 0,8.5863 -6.31345,13.63705 -21.46575,24.4962 9.84899,9.34391 17.17259,-25.25381 0.50508,38.63834 11.86929,-0.50508 -1.26269,-62.882 4.29315,-11.11167 6.81853,-2.77792 -10.6066,-6.56599 1.51523,-20.45559 z"
         style="fill:none;stroke:#000000;stroke-width:1px;stroke-linecap:butt;stroke-linejoin:miter;stroke-opacity:1" />
      <path
         inkscape:connector-curvature="0"
         id="path3246"
         d="m 549.01791,393.99526 1.01015,11.61676 17.42513,-14.64721 17.42513,-7.57615 8.83884,0 8.33375,8.83884 3.78808,18.18274 -3.78808,21.71828 15.15229,13.8896 8.83884,-8.33376 -11.61676,-8.58629 1.01015,-28.78935 -8.33375,-18.18275 -13.8896,-8.83883 -12.37437,0.75761 -20.20305,10.6066 z"
         style="fill:none;stroke:#000000;stroke-width:1px;stroke-linecap:butt;stroke-linejoin:miter;stroke-opacity:1" />
      <path
         inkscape:connector-curvature="0"
         id="path3248"
         d="m 604.32376,422.53207 -9.59645,-3.78807 -14.39468,-1.26269 -9.34391,7.07107 -3.03045,9.59645 6.31345,9.84899 14.14213,4.54568 15.15229,-3.78807 7.32361,-6.81853 -7.57615,-7.07107 -5.3033,5.80838 -9.84898,3.283 -9.84899,-4.29315 0,-7.57615 7.57614,-3.53553 17.42513,7.57614 z"
         style="fill:none;stroke:#000000;stroke-width:1px;stroke-linecap:butt;stroke-linejoin:miter;stroke-opacity:1" />
    </g>
    <path
       style="fill:none;stroke:#000000;stroke-width:1px;stroke-linecap:butt;stroke-linejoin:miter;stroke-opacity:1"
       d="m 562.65497,578.09556 -3.03046,24.74874 -14.64721,27.27412 -11.61676,5.55584 -7.63742,-13.785 8.64758,-27.12618 25.75889,-19.1929 25.25381,1.51523 17.52973,12.73895 2.67332,26.15192 -10.6066,18.68783 -26.76904,11.11167 4.04061,10.10153 30.30457,-12.62691 13.13199,-20.20305 1.01015,-23.73858 -12.74946,-22.45795 -32.20233,-10.87709 -29.7995,7.57615 -19.1929,21.71828 -7.6628,26.20269 8.67295,21.27448 12.62691,5.05076 16.33576,-10.51994 15.48405,-30.89632 7.07106,-28.78934 z"
       id="path3175"
       inkscape:connector-curvature="0"
       sodipodi:nodetypes="ccccccccccccccccccccccccccc" />
    <g
       id="g3261">
      <path
         inkscape:connector-curvature="0"
         id="path3255"
         d="m 412.89985,-271.69526 0.75762,20.70813 -34.09265,0.50507 0.50507,10.10153 33.84011,-0.25254 0.75762,53.28555 5.80837,8.08122 4.79823,-6.56599 0.75761,-6.31346 18.94036,11.36422 6.81853,-11.36422 -26.5165,-9.59645 -0.50508,-39.64848 22.22336,-2.02031 -1.01015,-9.34391 -20.96067,1.26269 -0.25254,-20.45559 z"
         style="fill:none;stroke:#000000;stroke-width:1px;stroke-linecap:butt;stroke-linejoin:miter;stroke-opacity:1" />
      <path
         inkscape:connector-curvature="0"
         id="path3257"
         d="m 413.91,-205.27773 -12.37437,-1.76777 -16.16244,5.05077 -4.04061,14.14213 8.08122,11.36422 16.66752,3.78807 14.89975,-6.31345 -6.06091,-8.5863 -8.08122,5.3033 -11.11168,-1.26269 -3.03046,-2.77792 0.50508,-8.08122 5.3033,-3.283 15.9099,1.51523 z"
         style="fill:none;stroke:#000000;stroke-width:1px;stroke-linecap:butt;stroke-linejoin:miter;stroke-opacity:1" />
      <path
         inkscape:connector-curvature="0"
         id="path3259"
         d="m 359.86684,-267.14957 -3.53553,54.04316 0.75761,23.48605 2.77792,3.78807 5.3033,-6.31346 7.57615,9.34391 -9.84899,8.83884 -8.08122,1.26269 -8.33376,-15.15229 1.26269,-81.31728 z"
         style="fill:none;stroke:#000000;stroke-width:1px;stroke-linecap:butt;stroke-linejoin:miter;stroke-opacity:1" />
    </g>
    <path
       style="fill:none;stroke:#000000;stroke-width:1px;stroke-linecap:butt;stroke-linejoin:miter;stroke-opacity:1"
       d="m 375.27167,-41.127947 -23.23351,5.555839 -2.0203,-12.12183 34.34518,-5.555839 8.08122,6.060915 -21.71828,33.84011 -4.04061,27.779195 11.61676,13.63706 20.70812,1.515229 15.65737,-9.59645 5.05076,-29.2944234 -8.08122,-40.9111776 12.12183,-3.535534 11.11168,25.75889 20.70813,23.233508 -11.61676,10.6066017 -14.14213,-22.7284327 -2.02031,35.860416 -13.13198,13.637059 -20.20305,8.586297 -27.27412,-5.555839 -12.62691,-19.697975 5.05077,-32.324881 z"
       id="path3177"
       inkscape:connector-curvature="0" />
    <g
       id="g3202">
      <path
         inkscape:connector-curvature="0"
         id="path3194"
         d="m 380.71429,143.79075 -5.35715,9.64286 21.78572,10 16.78571,4.64286 3.21429,-10.71429 -22.5,-6.78571 z"
         style="fill:none;stroke:#000000;stroke-width:1px;stroke-linecap:butt;stroke-linejoin:miter;stroke-opacity:1" />
      <path
         inkscape:connector-curvature="0"
         id="path3196"
         d="m 381.42857,173.79075 -2.14286,17.5 2.85715,5.71429 21.42857,15 6.07143,10.35714 -1.78572,10 -8.92857,3.57143 -12.5,-3.21428 -4.28571,-5 -8.57143,5.35714 11.07143,10 16.78571,2.5 11.42857,-5.35714 8.57143,-10.71429 -2.14286,-16.42857 -15,-13.57143 -12.14285,-6.78571 -0.71429,-10.71429 1.78572,-6.78571 z"
         style="fill:none;stroke:#000000;stroke-width:1px;stroke-linecap:butt;stroke-linejoin:miter;stroke-opacity:1" />
      <path
         inkscape:connector-curvature="0"
         id="path3198"
         d="m 371.07143,203.79075 8.21428,6.78572 -27.85714,26.78571 -7.5,-7.14285 z"
         style="fill:none;stroke:#000000;stroke-width:1px;stroke-linecap:butt;stroke-linejoin:miter;stroke-opacity:1" />
      <path
         inkscape:connector-curvature="0"
         id="path3200"
         d="m 427.14286,195.21933 -6.78572,8.21428 16.78572,17.14286 8.57143,11.07143 10.71428,-9.28572 z"
         style="fill:none;stroke:#000000;stroke-width:1px;stroke-linecap:butt;stroke-linejoin:miter;stroke-opacity:1" />
    </g>
    <path
       style="fill:none;stroke:#000000;stroke-width:1px;stroke-linecap:butt;stroke-linejoin:miter;stroke-opacity:1"
       d="m 352.14286,415.21933 -9.28572,-7.85715 37.5,-33.57143 6.42857,-2.5 6.42858,2.5 31.78571,28.57143 30.35714,23.57143 -9.28571,11.07143 -56.42857,-51.78571 -5.71429,-0.35715 z"
       id="path3208"
       inkscape:connector-curvature="0" />
    <g
       id="g3272">
      <path
         sodipodi:nodetypes="cccccccccccccccccccccc"
         inkscape:connector-curvature="0"
         id="path3266"
         d="m 387.3935,566.22627 1.26269,9.84899 30.55711,-0.50508 1.01016,19.69798 -34.85027,0.75761 1.01016,11.8693 34.59772,-3.03046 -0.50508,41.92133 5.55584,7.07107 6.06092,-12.62691 19.44544,10.85914 6.31345,-12.12183 -25.00128,-8.5863 -1.01015,-26.76904 21.97082,-1.51523 -0.50508,-11.61675 -21.71828,3.28299 -1.01015,-18.94036 17.17259,-1.76776 -0.50507,-10.6066 -23.23351,2.77791 z"
         style="fill:none;stroke:#000000;stroke-width:1px;stroke-linecap:butt;stroke-linejoin:miter;stroke-opacity:1" />
      <path
         inkscape:connector-curvature="0"
         id="path3268"
         d="m 366.68537,565.7212 -4.04061,51.77031 0,24.24367 3.78807,4.79822 6.06092,-6.31345 6.81853,10.10152 -8.83884,9.34391 -9.09137,0.50508 -8.5863,-16.41498 1.76777,-78.28682 z"
         style="fill:none;stroke:#000000;stroke-width:1px;stroke-linecap:butt;stroke-linejoin:miter;stroke-opacity:1" />
      <path
         inkscape:connector-curvature="0"
         id="path3270"
         d="m 422.24376,628.35065 -16.92005,-1.76776 -15.65737,8.08122 -1.01015,13.88959 8.08122,8.5863 17.42513,2.02031 13.38452,-5.3033 -6.31345,-8.08122 -9.59645,5.55583 -12.37437,-4.04061 0,-7.07106 6.56599,-5.05077 15.15229,0.75762 z"
         style="fill:none;stroke:#000000;stroke-width:1px;stroke-linecap:butt;stroke-linejoin:miter;stroke-opacity:1" />
    </g>
    <g
       id="g3281">
      <path
         inkscape:connector-curvature="0"
         id="path3277"
         d="m 232.84016,-280.78663 1.26269,21.2132 -41.16371,-0.25254 2.27284,11.36422 38.13326,-2.02031 1.51523,16.66752 -21.97082,0.25254 -6.81853,-4.04061 -5.80838,10.35406 12.12183,3.03046 22.98097,-0.50508 -0.25254,36.11296 6.81853,7.57614 4.04061,-16.41498 27.02158,13.8896 6.81853,-10.6066 -33.08249,-13.13198 -0.50508,-17.67767 26.26397,-2.02031 -1.26269,-10.6066 -25.00128,3.03046 -1.01015,-16.92006 33.58757,-2.27284 -2.77792,-9.34391 -29.54696,1.76776 -1.01015,-18.94036 z"
         style="fill:none;stroke:#000000;stroke-width:1px;stroke-linecap:butt;stroke-linejoin:miter;stroke-opacity:1" />
      <path
         inkscape:connector-curvature="0"
         id="path3279"
         d="m 234.86047,-210.83357 -16.66752,-1.01015 -15.9099,6.56599 -5.05077,14.89975 7.82869,12.37437 18.18274,4.04061 18.94036,-7.07107 -6.56599,-8.33376 -8.33376,5.3033 -14.64721,-1.26269 -4.29315,-7.57614 2.77792,-6.31345 10.35406,-4.54569 15.65737,3.03046 z"
         style="fill:none;stroke:#000000;stroke-width:1px;stroke-linecap:butt;stroke-linejoin:miter;stroke-opacity:1" />
    </g>
    <g
       id="g3289">
      <path
         inkscape:connector-curvature="0"
         id="path3285"
         d="m 187.3833,-54.259925 3.78807,10.85914 28.53681,-5.050763 -7.57615,31.314729 -13.38452,29.294424 5.80838,6.81853 15.15229,-27.7791953 31.56726,9.09137284 -12.37436,19.69797446 -14.64722,11.616754 7.07107,10.101526 18.68782,-17.930208 12.37437,-17.6776694 13.38452,7.8286824 7.32361,-11.1116781 -17.17259,-9.0913729 5.55584,-26.263966 -13.8896,-2.777919 -2.27285,26.0114274 -16.66751,-5.8083774 -15.9099,-2.525381 14.64721,-35.102801 -9.59645,-6.313453 z"
         style="fill:none;stroke:#000000;stroke-width:1px;stroke-linecap:butt;stroke-linejoin:miter;stroke-opacity:1" />
      <path
         inkscape:connector-curvature="0"
         id="path3287"
         d="m 213.64726,-18.146971 -20.70812,2.525381 -16.66752,13.8895975 -3.53554,14.3946735 7.57615,11.616754 16.41498,1.262691 9.09137,-7.323606 -6.81853,-6.565991 -8.83883,3.788072 -5.55584,-2.77792 2.27284,-13.13198287 12.62691,-7.82868213 9.59645,-0.5050763 z"
         style="fill:none;stroke:#000000;stroke-width:1px;stroke-linecap:butt;stroke-linejoin:miter;stroke-opacity:1" />
    </g>
    <g
       id="g3299">
      <path
         inkscape:connector-curvature="0"
         id="path3293"
         d="m 208.5965,143.98251 0.75761,18.94036 -25.50635,-0.75761 0.75762,10.85914 24.74873,-0.75762 -1.26269,36.61803 -4.54568,19.95051 4.29315,10.85914 13.38452,7.57615 36.87056,-1.51523 15.40483,-8.83884 0.50508,-12.12183 -4.04061,-20.45558 -11.36422,2.77792 4.54569,22.72843 -7.57615,6.81853 -35.1028,0 -5.55584,-6.56599 5.05077,-29.04189 0.25253,-29.54696 29.29443,-3.283 -1.26269,-9.59645 -28.03174,4.29315 1.76777,-19.69797 z"
         style="fill:none;stroke:#000000;stroke-width:1px;stroke-linecap:butt;stroke-linejoin:miter;stroke-opacity:1" />
      <path
         inkscape:connector-curvature="0"
         id="path3295"
         d="m 263.90235,169.99394 -5.3033,9.34391 22.98097,18.68782 8.5863,-8.83883 z"
         style="fill:none;stroke:#000000;stroke-width:1px;stroke-linecap:butt;stroke-linejoin:miter;stroke-opacity:1" />
      <path
         inkscape:connector-curvature="0"
         id="path3297"
         d="m 210.6168,187.92415 -10.6066,-1.26269 -10.6066,7.3236 -5.3033,14.14214 3.03046,13.13198 9.34391,5.05076 9.84899,-2.52538 2.77792,-14.89975 -6.81853,7.07107 -7.32361,-1.26269 -0.75761,-10.85914 5.3033,-9.09137 10.6066,2.27284 z"
         style="fill:none;stroke:#000000;stroke-width:1px;stroke-linecap:butt;stroke-linejoin:miter;stroke-opacity:1" />
    </g>
    <g
       id="g3311">
      <path
         inkscape:connector-curvature="0"
         id="path3305"
         d="m 242.68915,353.33663 -2.77792,17.17259 -22.72843,3.78807 -9.59645,5.80838 -3.283,-16.92006 -11.86929,2.02031 6.81853,21.97082 -8.5863,11.86929 -6.31345,26.26396 4.29315,14.89975 11.86929,6.566 12.37437,-3.53554 9.59645,-10.6066 3.28299,4.04061 10.35407,-6.81853 -5.3033,-7.57614 18.18274,-41.6688 -12.37437,-1.51523 -12.12183,35.10281 -9.59645,12.37436 -11.61675,8.5863 -6.06092,-2.77792 0.25254,-22.22335 6.56599,-13.38453 17.67767,-14.64721 29.29443,-2.27284 -0.50508,-10.35406 5.3033,-14.14214 z"
         style="fill:none;stroke:#000000;stroke-width:1px;stroke-linecap:butt;stroke-linejoin:miter;stroke-opacity:1" />
      <path
         inkscape:connector-curvature="0"
         id="path3307"
         d="m 210.11173,389.19704 15.15229,26.26397 -7.57615,9.84898 -15.15229,-29.54696 z"
         style="fill:none;stroke:#000000;stroke-width:1px;stroke-linecap:butt;stroke-linejoin:miter;stroke-opacity:1" />
      <path
         inkscape:connector-curvature="0"
         id="path3309"
         d="m 249.25514,370.76176 13.13198,1.76776 18.94036,15.40483 5.55584,19.44544 -1.51523,18.43528 -13.63706,17.42513 -27.77919,10.35406 -5.3033,-11.86929 22.22335,-4.29315 11.8693,-11.61675 2.77792,-18.68782 -7.82869,-18.94036 -20.96066,-8.83884 z"
         style="fill:none;stroke:#000000;stroke-width:1px;stroke-linecap:butt;stroke-linejoin:miter;stroke-opacity:1" />
    </g>
    <path
       style="fill:none;stroke:#000000;stroke-width:1px;stroke-linecap:butt;stroke-linejoin:miter;stroke-opacity:1"
       d="m 214.90995,557.1349 -3.28299,21.97082 -21.21321,-2.27285 0,10.60661 19.69798,0 -2.77792,19.19289 -6.81853,-0.25253 -9.34391,-4.79823 -4.54569,8.5863 11.61676,5.05076 6.06091,0.50508 -1.26269,21.46574 7.82868,14.89975 18.68782,8.5863 17.42514,-0.25254 19.95051,-9.34391 6.06091,-20.20305 -3.03045,-19.69798 -10.85914,2.77792 2.52538,16.66752 -5.05076,14.14213 -11.8693,5.3033 -16.66751,-0.25253 -12.12183,-9.34392 0.50507,-23.73858 33.84011,0.25254 -1.76777,-11.11168 -31.56726,1.51523 4.29315,-18.18275 25.75889,-1.76776 -2.02031,-10.60661 -23.23351,2.27285 5.3033,-20.20305 z"
       id="path3316"
       inkscape:connector-curvature="0" />
    <path
       style="fill:none;stroke:#000000;stroke-width:1px;stroke-linecap:butt;stroke-linejoin:miter;stroke-opacity:1"
       d="m 29.7995,-266.39196 9.091373,27.02158 -28.536809,10.10153 8.08122,10.6066 23.991123,-10.35406 22.223356,57.57869 12.879444,-4.54569 -24.748737,-57.57869 29.041886,-10.6066 16.414978,-0.25254 8.838836,9.09137 0.50508,12.12183 -6.31346,8.33376 -12.374367,0.25254 -11.869292,-8.33376 -7.828682,6.81853 12.374369,9.84899 15.657364,2.52538 15.909898,-6.81853 7.07107,-15.65736 -3.53553,-15.90991 -16.41498,-12.6269 -18.940361,1.51523 2.525382,-19.69798 -11.616754,-0.75761 -1.767767,23.99112 -20.203051,5.55584 -8.333759,-24.74874 z"
       id="path3319"
       inkscape:connector-curvature="0" />
    <g
       id="g3327">
      <path
         inkscape:connector-curvature="0"
         id="path3321"
         d="m 19.697975,152.82135 -2.272844,44.44671 5.050763,30.55711 11.869292,-5.3033 -3.788072,-9.34391 14.394674,-26.01143 21.213203,-13.63706 7.576144,-1.51523 -1.26269,23.73859 -2.272843,16.92005 -5.050763,9.59645 11.364216,3.03046 6.313453,-26.26397 2.020305,-28.5368 8.838835,0.75761 10.859142,6.81853 3.28299,12.62691 -3.03045,14.39467 -13.384525,9.09137 -13.384521,-0.25254 -3.030458,10.10153 11.869292,1.01015 20.203052,-7.57614 13.63706,-20.45559 -4.04061,-20.20305 -14.14214,-12.87945 -17.425129,-2.77792 -1.010152,-20.96066 -12.879445,1.26269 1.767767,20.96067 -16.667517,4.54568 -17.930207,14.39468 -10.606602,14.64721 4.545686,-41.41626 z"
         style="fill:none;stroke:#000000;stroke-width:1px;stroke-linecap:butt;stroke-linejoin:miter;stroke-opacity:1" />
      <path
         inkscape:connector-curvature="0"
         id="path3323"
         d="m 69.953063,212.16781 -12.12183,-11.36422 -8.08122,8.08122 16.16244,13.38452 z"
         style="fill:none;stroke:#000000;stroke-width:1px;stroke-linecap:butt;stroke-linejoin:miter;stroke-opacity:1" />
      <path
         inkscape:connector-curvature="0"
         id="path3325"
         d="m 66.417529,221.76426 -8.333758,11.61675 -6.313453,6.06092 10.354063,8.08122 14.142136,-22.98097 z"
         style="fill:none;stroke:#000000;stroke-width:1px;stroke-linecap:butt;stroke-linejoin:miter;stroke-opacity:1" />
    </g>
    <g
       id="g3102">
      <path
         sodipodi:nodetypes="ccccccccccccc"
         inkscape:connector-curvature="0"
         id="path3098"
         d="m 56.071428,560.57647 1.785715,73.21429 23.571428,7.5 18.571428,11.07142 8.571431,-10 -22.500002,-11.07142 -17.857143,-4.64286 0.357143,-28.92857 36.071432,-4.64286 -5.000003,-10.35714 -32.142857,5 0,-26.78572 z"
         style="fill:none;stroke:#000000;stroke-width:1px;stroke-linecap:butt;stroke-linejoin:miter;stroke-opacity:1" />
      <path
         sodipodi:nodetypes="cccccccccc"
         inkscape:connector-curvature="0"
         id="path3100"
         d="m 58.214285,633.79076 -2.5,13.21428 -8.571428,5.35714 -15.357143,-2.14285 -5.357143,8.21428 16.071429,4.50501 13.571431,-2.9949 9.642857,-9.78072 4.28571,-12.99488 z"
         style="fill:none;stroke:#000000;stroke-width:1px;stroke-linecap:butt;stroke-linejoin:miter;stroke-opacity:1" />
      <path
         sodipodi:nodetypes="cccccccccccc"
         inkscape:connector-curvature="0"
         id="path3103"
         d="m 58.928571,626.29076 -0.357143,8.57142 -12.142857,-4.64285 -15,4.28571 -4.285714,7.5 5,8.57143 -5.357143,9.28571 -7.5,-10.35714 0.357143,-13.92857 8.928571,-7.85714 20.714286,-4.28572 z"
         style="fill:none;stroke:#000000;stroke-width:1px;stroke-linecap:butt;stroke-linejoin:miter;stroke-opacity:1" />
    </g>
    <g
       id="g3306">
      <path
         inkscape:connector-curvature="0"
         id="path3300"
         d="m -115.66247,-276.49349 -5.05076,10.10153 38.385798,11.61675 1.010152,-11.61675 z"
         style="fill:none;stroke:#000000;stroke-width:1px;stroke-linecap:butt;stroke-linejoin:miter;stroke-opacity:1" />
      <path
         inkscape:connector-curvature="0"
         id="path3304"
         d="m -126.77414,-250.22952 -6.06092,48.99239 9.09137,1.51523 14.14214,-14.14213 26.769041,-6.06092 13.63706,5.05077 4.04061,14.64721 -12.121831,13.63706 -37.37564,2.52538 1.01015,11.61675 27.274117,-2.0203 20.708128,-9.09138 9.596449,-17.17259 -1.010153,-15.65736 -26.769042,-11.61676 -23.233509,5.05076 -14.64721,8.5863 4.04061,-32.32488 z"
         style="fill:none;stroke:#000000;stroke-width:1px;stroke-linecap:butt;stroke-linejoin:miter;stroke-opacity:1" />
    </g>
    <g
       id="g3314">
      <path
         inkscape:connector-curvature="0"
         id="path3310"
         d="m -133.34014,-60.320846 -2.52538,45.456865 4.54569,20.2030509 10.6066,0 11.11168,-14.6472119 -5.05076,-7.071068 -9.59645,10.1015256 -2.52538,-27.7791946 5.55583,-25.75889 z"
         style="fill:none;stroke:#000000;stroke-width:1px;stroke-linecap:butt;stroke-linejoin:miter;stroke-opacity:1" />
      <path
         inkscape:connector-curvature="0"
         id="path3312"
         d="m -86.368043,-62.846227 5.050763,50.507627 -7.071068,28.789348 -18.182742,13.131983 -12.62691,4.04061 6.56599,11.111678 22.223357,-14.142135 12.626907,-14.647212 6.565992,-21.7182801 -2.020305,-58.5888479 z"
         style="fill:none;stroke:#000000;stroke-width:1px;stroke-linecap:butt;stroke-linejoin:miter;stroke-opacity:1" />
    </g>
    <path
       style="fill:none;stroke:#000000;stroke-width:1px;stroke-linecap:butt;stroke-linejoin:miter;stroke-opacity:1"
       d="m -96.469568,152.31627 -34.850262,4.54568 -2.02031,-10.6066 47.477174,-3.03046 8.586296,5.55584 -31.31473,36.36549 24.243663,-5.05076 18.182745,7.57614 9.596449,19.69798 -6.565991,20.20305 -25.253814,14.14214 -26.263962,-1.01016 -8.08122,-13.13198 5.05076,-15.65736 15.65736,-2.02031 17.677673,11.61675 0.252538,5.80838 -8.586297,2.02031 -2.777919,-5.80838 -13.131985,-4.54569 -6.06091,9.09138 6.06091,6.06091 29.294425,-6.56599 10.606602,-9.09137 0.505076,-17.67767 -19.697974,-13.63706 -30.809649,9.59645 -20.20305,22.22335 -9.59645,-9.59645 z"
       id="path3318"
       inkscape:connector-curvature="0"
       sodipodi:nodetypes="cccccccccccccccccccccccccccccc" />
    <path
       style="fill:none;stroke:#000000;stroke-width:1px;stroke-linecap:butt;stroke-linejoin:miter;stroke-opacity:1"
       d="m -134.64286,386.6479 -17.32143,5.17857 -3.75,-10.53571 20.89286,-3.03572 1.25,-28.57143 12.14286,0.71429 -1.25,23.21429 8.39286,5.53571 -4.82143,2.85714 -2.67857,8.39286 24.28571,-15.89286 9.107143,-3.92857 13.75,2.5 5.714286,6.60714 -0.357143,53.92858 3.214286,1.42857 5.535714,-3.39286 4.821429,-11.60714 9.821428,5 -8.392857,15.89285 -12.142857,6.60715 -9.107143,-0.89286 -4.821428,-8.75 1.428571,-52.67857 -4.464286,-4.28572 -11.785714,1.07143 -28.571429,23.75 2.85714,48.21429 -12.67857,1.25 -0.17857,-35.89286 -16.42857,20.71429 -10,-8.57143 21.42857,-23.39286 4.82143,-10 z"
       id="path3335"
       inkscape:connector-curvature="0" />
    <path
       style="fill:none;stroke:#000000;stroke-width:1px;stroke-linecap:butt;stroke-linejoin:miter;stroke-opacity:1"
       d="m -135.86552,567.48896 4.04061,9.59645 33.840113,-5.05076 -49.497473,56.56854 6.56599,8.08122 19.69797,-18.18275 25.253818,-11.61675 21.71828,6.06092 5.555839,14.64721 -3.535534,16.16244 -16.162441,7.07107 -31.314732,-1.01016 3.03046,11.61676 28.284272,-0.50508 22.223356,-8.5863 8.586297,-22.72843 -9.091373,-21.2132 -18.182746,-9.09137 -23.738586,4.04061 29.799502,-34.85027 -10.101526,-6.56599 z"
       id="path3328"
       inkscape:connector-curvature="0" />
    <path
       style="fill:none;stroke:#000000;stroke-width:1px;stroke-linecap:butt;stroke-linejoin:miter;stroke-opacity:1"
       d="m -297.67857,-276.74495 0.17857,24.64285 -24.28571,3.75 4.82143,11.96429 18.92857,-6.78572 0,17.32143 -26.96429,28.75 8.92857,10 17.67857,-25 1.42858,40.71429 13.03571,-1.42857 -3.21429,-51.07143 24.28572,-14.28572 19.28571,-1.25 10,5.17858 6.07143,13.75 -3.21428,16.42857 -9.46429,10 -22.14286,6.07143 3.21429,9.82142 25.35714,-7.14285 14.10714,-15.35715 2.5,-21.78571 -5.89285,-15 -16.25,-10.71429 -19.64286,0.53572 -27.85714,12.5 0.17857,-3.57143 5.35714,-8.03571 5.89286,-3.92858 -10.53572,-6.60714 1.07143,-18.92857 z"
       id="path3337"
       inkscape:connector-curvature="0" />
    <path
       style="fill:none;stroke:#000000;stroke-width:1px;stroke-linecap:butt;stroke-linejoin:miter;stroke-opacity:1"
       d="m -279.10714,558.61218 -0.71429,8.21429 -5,9.10714 -30.17857,1.07143 1.60714,10.71429 25,-2.85715 -15.89285,20.53572 -13.75,9.82143 8.92857,9.28571 11.25,-12.85714 16.42857,-7.67857 10,0.89285 2.5,3.57143 -0.71429,5.89286 -18.39285,10.71429 -12.32143,15.53571 1.60714,10.35714 9.82143,9.28572 54.64286,3.03571 1.42857,-12.5 -33.21429,2.32143 -19.46428,-2.14286 -3.39286,-8.92857 6.96429,-10.35714 13.75,-7.67857 0.17857,15.89285 9.64285,-0.35714 1.07143,-20.89286 24.46429,-10.71428 11.96428,-2.5 -12.14285,-11.07143 -1.96429,3.39286 -25.71428,11.60714 -3.39286,-10.53571 -8.92857,-2.32143 -14.82143,3.39285 10,-15.71428 30.71428,-4.10714 -2.85714,-11.25 -22.14286,4.82142 5.35715,-12.85714 z"
       id="path3339"
       inkscape:connector-curvature="0" />
    <path
       style="fill:none;stroke:#000000;stroke-width:1px;stroke-linecap:butt;stroke-linejoin:miter;stroke-opacity:1"
       d="m -446.48742,-280.02902 -23.3945,51.55215 -23.07252,40.37173 9.68311,6.65265 17.59101,-30.89631 14.41758,-10.17739 8.93848,-4.44444 5.1628,4.10188 2.5,26.67187 4.69991,10.04146 7.71779,4.11119 18.18274,-3.03045 22.22336,-34.34519 -11.82597,-8.37708 -9.91769,25.30457 -7.81685,8.93969 -8.82529,0.39679 -5.05076,-10.10153 -3.03046,-25.25381 -5.02568,-6.37716 -8.64727,-0.33677 -17.64178,7.72408 25.48841,-48.19146 z"
       id="path3351"
       inkscape:connector-curvature="0"
       sodipodi:nodetypes="cccccccccccccccccccccccc" />
  </g>
</svg>
