<?xml version="1.0" encoding="UTF-8" standalone="no"?>
<!-- Created with Inkscape (http://www.inkscape.org/) -->

<svg
   xmlns:dc="http://purl.org/dc/elements/1.1/"
   xmlns:cc="http://creativecommons.org/ns#"
   xmlns:rdf="http://www.w3.org/1999/02/22-rdf-syntax-ns#"
   xmlns:svg="http://www.w3.org/2000/svg"
   xmlns="http://www.w3.org/2000/svg"
   xmlns:xlink="http://www.w3.org/1999/xlink"
   xmlns:sodipodi="http://sodipodi.sourceforge.net/DTD/sodipodi-0.dtd"
   xmlns:inkscape="http://www.inkscape.org/namespaces/inkscape"
   width="744.09448819"
   height="1052.3622047"
   id="svg2"
   version="1.1"
   inkscape:version="0.48.5 r10040"
   sodipodi:docname="katakana.svg">
  <defs
     id="defs4" />
  <sodipodi:namedview
     id="base"
     pagecolor="#ffffff"
     bordercolor="#666666"
     borderopacity="1.0"
     inkscape:pageopacity="0.0"
     inkscape:pageshadow="2"
     inkscape:zoom="3.959798"
     inkscape:cx="1211.8089"
     inkscape:cy="1327.3343"
     inkscape:document-units="px"
     inkscape:current-layer="layer2"
     showgrid="false"
     inkscape:window-width="1204"
     inkscape:window-height="1055"
     inkscape:window-x="446"
     inkscape:window-y="167"
     inkscape:window-maximized="0" />
  <metadata
     id="metadata7">
    <rdf:RDF>
      <cc:Work
         rdf:about="">
        <dc:format>image/svg+xml</dc:format>
        <dc:type
           rdf:resource="http://purl.org/dc/dcmitype/StillImage" />
        <dc:title />
      </cc:Work>
    </rdf:RDF>
  </metadata>
  <g
     inkscape:label="Layer 1"
     inkscape:groupmode="layer"
     id="layer1"
     style="display:none"
     sodipodi:insensitive="true">
    <image
       y="-429.96545"
       x="-564.62427"
       id="image2997"
       xlink:href="file:///C:/Users/fblos_000/Desktop/2000px-Table_katakana.svg.png"
       height="1208"
       width="2000" />
  </g>
  <g
     inkscape:groupmode="layer"
     id="layer2"
     inkscape:label="Warstwa">
    <path
       style="fill:none;stroke:#000000;stroke-width:1px;stroke-linecap:butt;stroke-linejoin:miter;stroke-opacity:1"
       d="m 1187.1817,-268.41227 2.5254,11.61675 79.297,-2.52538 -13.132,16.16244 -14.6472,9.09138 0.5051,-10.10153 -11.1117,-2.02031 -4.5457,32.32489 -11.1117,19.19289 -12.1218,9.09138 7.5761,11.61675 16.1625,-17.67767 11.1116,-19.69797 2.0204,-20.20305 7.071,9.09137 22.7285,-17.17259 11.6167,-16.16244 6.566,-5.05077 -12.6269,-9.09137 z"
       id="path3000-1"
       inkscape:connector-curvature="0" />
    <path
       style="fill:none;stroke:#000000;stroke-width:1px;stroke-linecap:butt;stroke-linejoin:miter;stroke-opacity:1"
       d="m 1176.8277,-12.843677 38.3858,-18.687822 26.7691,-24.243661 12.1218,-17.172593 11.6167,7.071067 -18.1827,20.203051 -11.6168,11.111678 5.0508,0 -1.0101,65.154839 -12.1219,-0.505076 0,-57.073619 -25.2538,17.1725936 -20.7081,9.59644921 z"
       id="path3021"
       inkscape:connector-curvature="0" />
    <path
       style="fill:none;stroke:#000000;stroke-width:1px;stroke-linecap:butt;stroke-linejoin:miter;stroke-opacity:1"
       d="m 1197.5359,202.31881 -8.5863,-0.50507 -3.0305,-41.41626 35.8604,-0.50507 -0.5051,-21.21321 13.6371,0 -0.5051,21.71828 30.8097,-0.50507 9.0913,7.57614 -6.0609,32.32488 -24.7487,31.31473 -33.3351,12.62691 -5.0507,-12.62691 20.203,-2.52538 22.2234,-16.66752 12.1218,-23.73858 -0.5051,-16.16244 -62.6294,-1.01015 z"
       id="path3023"
       inkscape:connector-curvature="0"
       sodipodi:nodetypes="ccccccccccccccccccc" />
    <path
       style="fill:none;stroke:#000000;stroke-width:1px;stroke-linecap:butt;stroke-linejoin:miter;stroke-opacity:1"
       d="m 1189.9597,368.48891 1.0102,11.61675 32.8299,-1.01015 1.0102,49.49748 -47.4772,0 1.0101,10.10152 104.5508,0 0,-10.6066 -45.9619,0.50508 -0.5051,-48.9924 32.83,-0.50508 -0.5051,-9.59645 z"
       id="path3025"
       inkscape:connector-curvature="0" />
    <path
       style="fill:none;stroke:#000000;stroke-width:1px;stroke-linecap:butt;stroke-linejoin:miter;stroke-opacity:1"
       d="m 1179.3531,635.16918 7.5761,9.59645 28.2843,-23.23351 22.2234,-27.27412 1.5152,47.47717 -3.5355,1.51523 -9.0914,-3.53553 -5.0508,10.6066 19.698,4.54569 9.0914,-5.55584 -1.5153,-62.62946 38.8909,-1.01015 -1.0101,-10.10153 -36.8706,0.50508 -0.5051,-26.26397 -11.1117,2.02031 1.5153,23.2335 -58.5889,0 0,10.60661 47.9823,1.51523 -23.7386,28.78934 z"
       id="path3027"
       inkscape:connector-curvature="0" />
    <path
       style="fill:none;stroke:#000000;stroke-width:1px;stroke-linecap:butt;stroke-linejoin:miter;stroke-opacity:1"
       d="m 1008.6373,-256.79552 3.0305,12.62691 35.3553,-3.53553 -13.132,33.84011 -22.7284,23.2335 9.0914,10.10153 24.7487,-30.80965 12.1218,-36.87057 29.7995,0 -2.0203,44.95179 -5.0507,5.55584 -13.132,-3.03046 -4.0406,11.61675 20.203,5.05077 10.1016,-9.09138 5.0507,-59.599 -7.5761,-6.56599 -31.3148,1.51523 -1.0101,-25.75889 -11.1117,-1.01015 1.5152,26.26396 z"
       id="path3029"
       inkscape:connector-curvature="0" />
    <path
       style="fill:none;stroke:#000000;stroke-width:1px;stroke-linecap:butt;stroke-linejoin:miter;stroke-opacity:1"
       d="m 1042.4774,-69.917296 5.0508,19.192899 -34.3452,5.050762 4.5457,10.101526 30.8096,-4.545687 5.0508,22.223356 -43.9416,6.565992 4.0406,11.11167781 42.4264,-6.56599151 10.6066,39.9010257 12.6269,-4.545687 -9.5965,-36.8705676 38.8909,-6.0609154 -3.0304,-11.616754 -38.3858,9.091373 -6.566,-26.769043 33.8401,-5.555839 -2.5254,-8.586296 -32.3249,6.565991 -5.0507,-21.718279 z"
       id="path3031"
       inkscape:connector-curvature="0" />
    <path
       style="fill:none;stroke:#000000;stroke-width:1px;stroke-linecap:butt;stroke-linejoin:miter;stroke-opacity:1"
       d="m 1055.6094,140.19443 -12.6269,27.27412 -19.1929,19.69798 7.5761,10.10152 19.1929,-16.16244 6.566,-16.66752 34.8503,-1.01015 -10.1015,31.31473 -25.2538,24.24366 -28.2843,8.5863 5.5558,12.62691 35.3554,-18.18275 21.2132,-20.20305 16.6675,-39.39595 -9.0914,-9.09137 -35.3553,0.50507 6.0609,-12.12183 z"
       id="path3033"
       inkscape:connector-curvature="0" />
    <path
       style="fill:none;stroke:#000000;stroke-width:1px;stroke-linecap:butt;stroke-linejoin:miter;stroke-opacity:1"
       d="m 1038.9419,346.77063 -5.5558,24.24366 -10.6066,19.1929 -15.1523,15.65736 8.5863,7.57615 24.2436,-29.7995 28.7894,-0.50508 -3.5356,22.72843 -10.6066,19.1929 -27.2741,12.62691 5.5559,11.61675 25.7588,-12.6269 14.6473,-17.1726 7.071,-26.26396 0.5051,-9.59645 27.2741,-1.01016 0,-11.61675 -63.6396,1.01015 8.5863,-23.23351 z"
       id="path3035"
       inkscape:connector-curvature="0" />
    <path
       style="fill:none;stroke:#000000;stroke-width:1px;stroke-linecap:butt;stroke-linejoin:miter;stroke-opacity:1"
       d="m 1023.2845,571.52957 1.5153,10.6066 68.6903,0.50508 -1.0101,46.46702 -67.6802,0.50507 -1.0102,10.6066 69.1955,0 0.505,5.05077 12.6269,0 0,-74.75129 z"
       id="path3037"
       inkscape:connector-curvature="0" />
    <path
       style="fill:none;stroke:#000000;stroke-width:1px;stroke-linecap:butt;stroke-linejoin:miter;stroke-opacity:1"
       d="m 871.25657,-269.42242 0,24.24366 -26.76904,0.50507 0,9.59645 25.75889,0.50508 3.53553,27.77919 9.59645,-2.52538 0,-23.73858 30.80965,-1.01015 -4.04061,27.77919 -27.27411,19.1929 5.05076,11.11168 22.72843,-13.63706 11.61675,-15.15229 3.03046,-28.78935 29.29443,-1.51523 -1.01016,-9.59645 -26.76904,0.50508 0,-31.31473 -13.63706,1.51523 0.50508,28.28427 -30.80965,1.51523 -2.52539,-26.76904 z"
       id="path3039"
       inkscape:connector-curvature="0" />
    <path
       style="fill:none;stroke:#000000;stroke-width:1px;stroke-linecap:butt;stroke-linejoin:miter;stroke-opacity:1"
       d="m 854.08398,17.965976 26.49507,-4.411579 23.50748,-14.27624347 29.7995,-37.37564453 10.10152,7.071068 -20.20305,26.7690426 -31.31473,24.2436614 -34.85026,11.616754 -3.53554,-13.637059 -10.4447,-46.193408 26.60714,15.762563 7.32362,-11.364216 -28.66308,-15.531096 -5.42958,11.237947 13.13199,-29.168155 5.05076,-9.596449 30.30458,16.162441 -7.07107,10.101525 -28.28427,-16.793786 -13.13198,29.420693 z"
       id="path3041"
       inkscape:connector-curvature="0"
       sodipodi:nodetypes="ccccccccccccccccccccc" />
    <path
       style="fill:none;stroke:#000000;stroke-width:1px;stroke-linecap:butt;stroke-linejoin:miter;stroke-opacity:1"
       d="m 856.10429,151.30611 4.04061,13.13198 52.52793,-4.04061 -11.61676,24.24366 -29.7995,28.28427 -28.78934,13.13199 5.55583,10.10152 31.31473,-15.65736 23.73859,-22.72843 36.36549,35.35534 10.10153,-8.08122 -37.88072,-34.85027 16.16244,-33.33503 -10.60661,-7.57615 z"
       id="path3000"
       inkscape:connector-curvature="0" />
    <path
       style="fill:none;stroke:#000000;stroke-width:1px;stroke-linecap:butt;stroke-linejoin:miter;stroke-opacity:1"
       d="m 866.07143,353.79075 0.71429,26.78572 -29.64286,3.57143 2.5,11.78571 27.14286,-4.28571 0.35714,42.14285 10.35714,10.35715 55,0.35714 2.5,-10 -51.42857,-1.07143 -3.92857,-5 -0.35714,-38.92857 45,-6.78572 -22.14286,21.78572 7.5,9.28571 32.5,-33.57143 -11.42857,-9.28571 -52.5,7.5 0.71428,-25.35714 z"
       id="path3045"
       inkscape:connector-curvature="0" />
    <path
       style="fill:none;stroke:#000000;stroke-width:1px;stroke-linecap:butt;stroke-linejoin:miter;stroke-opacity:1"
       d="m 865.35714,645.21932 35,-15.71428 18.57143,-27.85714 8.21429,-36.07143 11.78571,3.92857 -9.28571,36.78571 -20,30 -38.21429,21.42857 -7.85714,-10.71428 -8.92857,-69.64286 8.57143,-7.5 19.28571,25.71429 -11.07143,6.42857 -17.5,-24.64286 z"
       id="path3047"
       inkscape:connector-curvature="0" />
    <path
       style="fill:none;stroke:#000000;stroke-width:1px;stroke-linecap:butt;stroke-linejoin:miter;stroke-opacity:1"
       d="m 681.85297,-228.51125 9.84899,8.5863 17.17259,-19.1929 8.33376,-13.8896 36.11295,-1.01015 -4.79822,20.45559 -5.05077,10.10153 -27.27411,-16.16244 -5.80838,9.09137 24.4962,15.40482 -16.41498,16.41498 -29.54696,9.09138 5.05076,13.13198 31.06219,-12.87945 19.95051,-16.41497 2.77792,3.28299 8.08122,-9.84899 -4.04061,-3.28299 11.36422,-25.25381 1.51523,-11.8693 3.78807,-2.77792 -9.09137,-8.33376 -36.87057,0.25254 6.56599,-13.88959 -14.14214,-2.52539 -10.35406,27.52666 z"
       id="path3049"
       inkscape:connector-curvature="0" />
    <path
       style="fill:none;stroke:#000000;stroke-width:1px;stroke-linecap:butt;stroke-linejoin:miter;stroke-opacity:1"
       d="m 690.6918,-51.482012 4.29315,9.596449 32.32488,-6.060916 0.25254,22.223356 -49.24494,0.757615 0.50508,9.848987 47.72971,0.757615 -2.27284,16.9200548 -9.34392,12.1218302 -17.9302,8.586297 6.06091,9.848987 19.95052,-10.85914 13.63705,-20.2030505 2.27285,-17.1725935 44.69925,0.252538 -0.25254,-10.354063 -44.69925,0 1.01015,-22.475894 -4.54568,-0.757615 26.5165,-10.606602 -5.3033,-9.091372 -30.05204,11.111678 z"
       id="path3051"
       inkscape:connector-curvature="0" />
    <path
       style="fill:none;stroke:#000000;stroke-width:1px;stroke-linecap:butt;stroke-linejoin:miter;stroke-opacity:1"
       d="m 1187.4343,-358.56839 0,54.2957 58.3363,0.75761 0.2526,-56.56854 z"
       id="path3001"
       inkscape:connector-curvature="0" />
  </g>
</svg>
